<?xml version="1.0" encoding="utf-8"?><svg viewBox="0 0 2000 2000" xmlns="http://www.w3.org/2000/svg" xmlns:xlink="http://www.w3.org/1999/xlink"><style>:root>svg{display:none}:root>svg:target{display:block}</style><svg viewBox="0 0 24 10" id="arrow" xmlns="http://www.w3.org/2000/svg"><path stroke="#000" stroke-width="2" d="M0 6h18" transform="matrix(1 0 0 .96154 0 -.77)"/><path d="M24 5l-6.75 5V0z"/></svg><svg viewBox="0 0 67 28" id="cat-pro" xmlns="http://www.w3.org/2000/svg"><path d="M61.53 2.87a7.6 7.58 0 012.25-2.3c.5-.34.8-.34 1.1.3.4.95.75 1.95.45 3a1.15 1.15 0 00.2 1.04c.3.4.55.8.8 1.15a3.14 3.13 0 01.45 3.1 2.7 2.7 0 00-.1 1.54c.1.5.1 1 0 1.5a1.88 1.87 0 01-1.35 1.59 2.6 2.6 0 00-1.6 1 .53.53 0 01-.45.25c-.6.1-2.1-1.25-2.1-1.85v-.3c.05-1.8-.05-1.94-1.7-2.7a2.2 2.2 0 01-.9-.59c-.3-.4-.7-.35-1.15-.2-.45.15-.7.45-.65.95.15 1.2.2 2.42.15 3.64 0 .14.04.28.1.4 1.55 2.24 2.15 4.88 2.9 7.43.6 1.94 1.7 2.99 3.7 3.14.32.03.64.08.95.15a2.08 2.07 0 011.7 1.6c.35 1.04.15 1.29-.9 1.29h-3.25c-.42.02-.83-.12-1.15-.4a5.86 5.84 0 00-1.7-1 3.63 3.62 0 01-1.7-1.3 14.3 14.26 0 00-2-2.24c-1.4-1.44-2.9-2.84-4.2-4.34a5.69 5.67 0 01-1.6-3.78c0-.45-.1-.65-.6-.45a.96.96 0 01-.5.15c-1.4 0-2.1.84-2.6 2.09-.44 1.05-1.04 2.04-1.6 3.1a5.2 5.19 0 00-.5 2.09c0 1.2.3 1.6 1.4 1.99.7.25 1.36.5 1.7 1.2.4.8.3 1-.54 1.04h-3.4a.94.94 0 01-.95-.55l-.9-1.5a3.02 3.01 0 01-.35-2.68 5.9 5.9 0 00.05-2.65 4.2 4.19 0 01.85-3.49c.3-.34.3-.5-.2-.6a25.02 24.96 0 01-5.95-2.09c-1.6-.6-1.9-.5-2.35 1.15-.4 1.4-.8 2.8-1.1 4.24-.35 1.6.05 3.09.55 4.58.2.6.8.55 1.25.7 1 .3 1.85.7 2.25 1.75.35.8.3.9-.55.9-.85 0-1.7-.06-2.6 0-.76 0-1.5-.24-2.1-.7-2.4-1.6-3.1-4.04-3.3-6.68-.1-1.65-1-2.95-2.04-4.2-.2-.24-.4-.34-.7-.14-1.07.6-2.2 1.1-3.35 1.5a13.34 13.31 0 00-6.1 4.38 5.3 5.3 0 00-1.1 2.54c-.15.9.1 1.3 1 1.55s1.35.75 1.45 1.7c.05.4-.1.6-.5.6h-4.05a.83.83 0 01-.65-.4 4.28 4.27 0 01-.95-2.75 25.29 25.23 0 01.45-5.13 3.15 3.14 0 011.7-2.4c2.95-1.4 4.5-4.04 5.9-6.78.3-.55.05-.65-.45-.6-1.4.2-2.73.75-3.85 1.6a35.28 35.2 0 00-4.15 3.54 8.34 8.32 0 01-5.14 2.44c-3.65.2-5.35-1.84-5.2-5.13.03-1.13.46-2.2 1.2-3.04a2.12 2.11 0 012.25-.75c.75.2.95.6.65 1.34-.15.3-.35.55-.5.85-.22.3-.38.64-.5 1-.55 1.5.2 2.54 1.75 2.7 1.65.14 3-.56 4.24-1.55 1.5-1.2 2.85-2.6 4-4.14a10.4 10.37 0 017.2-4.04c1.15-.15 2.15-.65 3.25-.95a20.69 20.64 0 016.35-.9 6.5 6.48 0 002.9-.54c2.44-1 5-1 7.54-.5 2 .4 4 .9 5.95 1.4a8.6 8.6 0 003.5-.1c2.2-.56 4.43-.9 6.7-1a9.08 9.05 0 014.3.84c1 .45 1 .45.74 1.4z"/></svg><svg viewBox="0 0 36 50" id="cat-slim" xmlns="http://www.w3.org/2000/svg"><path d="M28.19 0h-.2c-.32.19-.6.47-.74.82a8.03 8.03 0 00-.67 1.76.84.84 0 01-.76.69 3.77 3.77 0 00-2.69 1.95c-.37.66-.69 1.35-.95 2.06-.73 1.9-1.29 3.85-1.98 5.77-.32.87-.34.87-1.32.87-1.16 0-1.08-.18-1.1 1.1 0 .41.13.62.56.6.13 0 .33-.07.4.1.04.18-.14.26-.24.36a4.63 4.63 0 01-2.23 1.26c-.97.26-1.97.47-2.92.79-2.44.82-4.7 1.96-6.45 3.9a14.43 14.44 0 00-2.44 4.04c-1.9 4.46-2.8 9.15-3.51 13.88a97.02 97.06 0 00-.75 6.7C.1 47.75 0 48.88 0 50h17.13a1 1 0 00-.12-.66 2.58 2.58 0 00-1.97-1.58c-.36-.08-.4-.2-.18-.48.36-.48.64-1.02.82-1.6.84-2.47 1.16-5.06 1.57-7.62.23-1.96.83-3.85 1.77-5.59a11.13 11.13 0 012.87-3.28c.43-.32.45-.32.52.23.05.36.06.74.09 1.11a48.18 48.2 0 01-.1 7.31 30.7 30.7 0 00-.07 5.67c.2 2.2.59 4.36 1.16 6.49h6.84a2.8 2.8 0 00-2.18-2.29c-.64-.1-1.3-.07-1.93.1-.31.08-.44 0-.46-.33-.22-2.73-.04-5.47.5-8.16a91.76 91.8 0 001.58-9.37c.14-1.27.54-2.5 1.18-3.6.6-1.1 1.14-2.23 1.74-3.33a3.03 3.03 0 00.22-2.67c-.14-.37-.27-.74-.44-1.1-.52-1-1.03-2-1.5-3-.26-.52-.2-.59.36-.6.84 0 .84 0 .86-.85v-.34c0-.35-.14-.55-.52-.51h-.78c-.36 0-.46-.15-.37-.52a3.22 3.22 0 012.64-2.28 11.3 11.3 0 013.4.22.51.51 0 00.64-.33 39.98 40 0 01.66-1.55.52.52 0 00-.05-.58c-1.64-2.1-3.42-4.05-5.86-5.3a.77.77 0 01-.45-.58 9.8 9.8 0 00-.65-2.14 1.8 1.8 0 00-.73-.89z"/></svg><svg viewBox="0 0 34 34" id="eat" xmlns="http://www.w3.org/2000/svg"><path d="M24.12 2.08a1 1 0 011.09.21c.9.91 2.1 2.88 3.06 5.92A42.6 42.6 0 0130 21a1 1 0 01-1 1h-3.5v9a1 1 0 11-2 0V3a1 1 0 01.62-.92zM25.5 20H28a39.62 39.62 0 00-1.64-11.19 22.4 22.4 0 00-.86-2.3zm-14-18a1 1 0 011 1v28a1 1 0 11-2 0V3a1 1 0 011-1z" clip-rule="evenodd"/><path d="M7 2a1 1 0 011 1v5.5c0 .56.2 1.32.7 1.92.48.56 1.31 1.08 2.8 1.08a1 1 0 110 2 5.41 5.41 0 01-4.33-1.8A5.07 5.07 0 016 8.5V3a1 1 0 011-1z" clip-rule="evenodd"/><path d="M16 2a1 1 0 00-1 1v5.5c0 .56-.2 1.32-.7 1.92-.48.56-1.31 1.08-2.8 1.08a1 1 0 000 2 5.4 5.4 0 004.33-1.8A5.07 5.07 0 0017 8.5V3a1 1 0 00-1-1z" clip-rule="evenodd"/></svg><svg fill="none" viewBox="0 0 20 20" id="email" xmlns="http://www.w3.org/2000/svg"><path stroke="#222" stroke-width="1.3" d="M.65 8.85v8m17-8v8M0 16.2h18M0 4.2h18m-.65 1.83L9 12.53.65 6.03V4.5h16.7z"/></svg><svg viewBox="0 0 2000 2000" id="empty" xmlns="http://www.w3.org/2000/svg"/><svg fill="none" viewBox="0 0 30 30" id="facebook" xmlns="http://www.w3.org/2000/svg"><path stroke="#666" stroke-linecap="round" stroke-linejoin="round" stroke-width="1.41" d="M20.8 2.2h-3.17c-1.4 0-2.73.69-3.72 1.88a5.12 6.33 0 00-1.54 4.53v3.84H9.2v5.11h3.17V27.8h4.2V17.55h3.17l1.06-5.11h-4.22V8.59a1.04 1.28 0 011.05-1.26h3.17z"/></svg><svg fill="none" viewBox="0 0 78 80" id="gift" xmlns="http://www.w3.org/2000/svg"><path fill="#fff" d="M64.02 34.71H14.03a3.18 3.18 0 01-3.18-3.16v-9.47a3.18 3.18 0 013.18-3.16h49.98a3.17 3.17 0 013.18 3.16v9.47a3.17 3.17 0 01-3.18 3.16zM14.03 21.35a.75.75 0 00-.74.73v9.47c0 .41.33.74.74.74h49.98c.41 0 .75-.33.75-.74v-9.47a.75.75 0 00-.75-.73H14.03z"/><path fill="#fff" d="M57.05 67.15H21a6.11 6.11 0 01-6.13-6.09V33.5a1.22 1.22 0 012.44 0v27.56A3.68 3.68 0 0021 64.73h36.05a3.68 3.68 0 003.68-3.67V33.5a1.22 1.22 0 012.44 0v27.56a6.11 6.11 0 01-6.12 6.09z"/><path fill="#fff" d="M39.02 67.15a1.22 1.22 0 01-1.22-1.21V33.5a1.22 1.22 0 012.44 0v32.44c0 .67-.54 1.2-1.22 1.2zm-15.2-45.8a7.8 7.8 0 01-3.18-10.6A7.9 7.9 0 0131.3 7.58c5.82 3.13 8.96 11.86 9.09 12.23l-2.3.8c-.03-.08-2.96-8.22-7.95-10.9a5.46 5.46 0 00-7.36 2.17 5.39 5.39 0 002.2 7.32l-1.17 2.13z"/><path fill="#fff" d="M54.23 21.34l-1.16-2.13a5.38 5.38 0 002.62-3.2 5.33 5.33 0 00-.43-4.12 5.38 5.38 0 00-3.22-2.6 5.43 5.43 0 00-4.14.43c-4.98 2.68-7.91 10.82-7.94 10.9l-2.3-.8c.13-.37 3.27-9.1 9.08-12.23a7.86 7.86 0 016-.62 7.8 7.8 0 014.67 3.77 7.72 7.72 0 01.62 5.95 7.79 7.79 0 01-3.8 4.65zm7.72 29.6H16.09a1.22 1.22 0 01-1.22-1.22c0-.67.55-1.21 1.22-1.21h45.86c.67 0 1.22.54 1.22 1.21 0 .67-.55 1.21-1.22 1.21z"/></svg><svg viewBox="0 0 60 60" id="htmlacademy" xmlns="http://www.w3.org/2000/svg"><path d="M30.2 5H30L10.3 7.1v36.2L30 55l19.7-11.7V7.1L30.2 5zm17 36.8L30 52 12.8 41.8V27l17.1 10.2V39l-11.7-7v1.8L30 40.9v1.9l-11.8-7v1.8l11.8 7 11.9-7.1v-7.6l5.3-3.2v15.1zm-.1-17l-4.7 2.8-2.2 1.3-10.3-6.1v1.8l8.8 5.3h-.1l-.2.1-1.3.7-7.3-4.3v1.8l5.8 3.4-1.4.9-4.3-2.6v1.8l2.9 1.7-2.9 1.7-17-10.1 17-10.2 17.2 10zm.1-1.8L29.9 12.8 12.8 23V9.4L30 7.6l17.2 1.8V23z"/></svg><svg fill="none" viewBox="0 0 30 30" id="instagram" xmlns="http://www.w3.org/2000/svg"><path fill="#666" d="M15 3.5c1.94 0 3.52.02 4.74.07 1.04.04 1.97.22 2.8.54a5.76 5.76 0 013.35 3.36c.32.81.5 1.74.54 2.79.05 1.22.07 2.8.07 4.74 0 1.93-.02 3.51-.07 4.74a8.65 8.65 0 01-.54 2.79 5.79 5.79 0 01-1.32 2.04 5.79 5.79 0 01-2.04 1.32c-.82.32-1.75.5-2.79.54-1.22.05-2.8.07-4.74.07a133.39 133.39 0 01-4.74-.07 8.65 8.65 0 01-2.8-.54 5.79 5.79 0 01-2.03-1.32 5.79 5.79 0 01-1.32-2.04 8.74 8.74 0 01-.54-2.79A133.18 133.18 0 013.5 15c0-1.94.02-3.52.07-4.74.04-1.05.23-1.98.54-2.8a5.78 5.78 0 011.32-2.03A5.79 5.79 0 017.47 4.1a8.5 8.5 0 012.79-.54A133.18 133.18 0 0115 3.5zM15 5c-2.01 0-3.65.02-4.92.06a7.3 7.3 0 00-2.27.43 4.14 4.14 0 00-2.32 2.32 7.26 7.26 0 00-.43 2.27A143.48 143.48 0 005 15c0 2.01.02 3.65.06 4.92.03.82.18 1.57.43 2.27a4.14 4.14 0 002.32 2.31c.7.26 1.45.4 2.27.43 1.27.05 2.9.07 4.92.07 2.01 0 3.65-.02 4.92-.07a7.28 7.28 0 002.27-.43 4.14 4.14 0 002.31-2.31c.26-.7.4-1.45.43-2.27.05-1.27.07-2.91.07-4.92s-.02-3.65-.07-4.92a7.28 7.28 0 00-.43-2.27 4.14 4.14 0 00-2.31-2.32 7.5 7.5 0 00-2.27-.43A143.44 143.44 0 0015 5zm0 14.6c1.27 0 2.36-.45 3.26-1.35.9-.9 1.35-1.98 1.35-3.25s-.45-2.36-1.35-3.26A4.44 4.44 0 0015 10.4c-1.27 0-2.36.45-3.26 1.35-.9.9-1.35 1.99-1.35 3.26 0 1.27.45 2.35 1.35 3.25.9.9 1.99 1.35 3.26 1.35zm0-10.5c1.63 0 3.02.58 4.17 1.72A5.68 5.68 0 0120.9 15c0 1.63-.58 3.02-1.73 4.17A5.68 5.68 0 0115 20.9a5.68 5.68 0 01-4.17-1.73A5.69 5.69 0 019.1 15a5.7 5.7 0 011.73-4.18A5.69 5.69 0 0115 9.1zm7.53-.23c0 .38-.14.7-.4.97a1.38 1.38 0 01-1 .4 1.31 1.31 0 01-.97-.4 1.31 1.31 0 01-.4-.97c0-.39.13-.72.4-1a1.3 1.3 0 01.96-.4 1.35 1.35 0 011 .42 1.35 1.35 0 01.41.98z"/></svg><svg viewBox="0 0 34 34" id="leaf" xmlns="http://www.w3.org/2000/svg"><g clip-path="url(#ka)" transform="translate(2 1)"><path d="M28.34 2.77a.95.95 0 00-.9-.77h-.01c-4.94.03-16.95.92-21.8 8.38C3.12 14.26 2.9 19.29 5 25.34l.07.13a25.93 25.93 0 00-1.04 3.32 1 1 0 00.72 1.19l.2.02c.43 0 .81-.32.9-.79.03-.1 2.42-10.37 10.86-16.38.43-.3.55-.93.26-1.38a.9.9 0 00-1.3-.28c-4.79 3.4-7.74 8-9.47 11.65-1.24-4.57-.92-8.37.99-11.3 3.74-5.76 12.62-7.15 17.98-7.45C24 5.87 22.75 9.17 22.75 15c0 3.12-.83 5.52-2.47 7.14-2.62 2.6-6.88 2.83-10 2.58-.51-.04-.96.38-1 .93-.04.55.35 1.03.86 1.07.63.05 1.3.08 1.98.08 3.18 0 6.87-.66 9.43-3.2 2.04-2 3.07-4.9 3.07-8.6 0-9.1 3.22-11.1 3.23-11.1.4-.21.6-.68.5-1.13z"/></g><defs><clipPath id="ka"><path d="M0 0h30v32H0z" transform="translate(.5)"/></clipPath></defs></svg><svg fill="none" viewBox="0 0 27 34" id="logo-academy" xmlns="http://www.w3.org/2000/svg"><path fill="#666" d="M13.64.02L13.5 0 0 1.4v24.61L13.5 34 27 26.01V1.41L13.64 0zm11.6 25L13.5 31.96 1.77 25.02v-10.1l11.68 6.93.02 1.25-8.02-4.75v1.23l8.04 4.8.02 1.3-8.05-4.76v1.22l8.04 4.81 8.12-4.83V16.9l3.62-2.15v10.26zm0-11.57L22 15.33l-1.48.88-7.06-4.19-.01 1.23 6.04 3.57-.06.03-.13.07-.86.5-4.98-2.95-.01 1.22 3.93 2.33-.93.61-.02.01-2.97-1.74-.01 1.23 1.94 1.13-1.98 1.19L1.8 13.58l11.63-6.96 11.8 6.83zm0-1.22L13.43 5.3 1.77 12.22V2.99L13.5 1.76 25.23 3v9.24z"/></svg><svg fill="none" viewBox="0 0 71 60" id="logo-l" xmlns="http://www.w3.org/2000/svg"><path fill="#FDC305" d="M59.88 24.21a25.8 25.8 0 00-8.05-10.55 25.5 25.5 0 00-25.29-3.4 25.64 25.64 0 00-10.51 8.04 25.95 25.95 0 00-3.55 25.48 25.82 25.82 0 007.9 10.67 25.5 25.5 0 0012.13 5.27c-.58-2.11-1.17-4.44-1.69-6.91 1.51.99 3.1 1.85 4.76 2.57 0 0 .12 2.18.28 4.61 1.79.03 3.58-.13 5.33-.47a2.17 2.17 0 010-.77c.3-1.89 1.1-5.29 1.25-7.48a15.33 15.33 0 002.9-3.74l-.06.45c-.55 4.3-1.7 8.88-2.4 10.15-.23.42-.5.81-.83 1.16a25.55 25.55 0 0016.96-13.38 26.04 26.04 0 00.87-21.7zm-1.47 3.82c-.44.44-1.35.73-1.5-.58-.15-1.31-.19-2.23-.19-2.23s-1.93-3.46-2.65-3.5c-.72-.04-5.83 3.5-7.18 5.04-1.17 1.3-1.4 1.21-1.4 3.5 0 1.73.22 8.24.1 13.23l-8.15 2.19a63.54 63.54 0 01-7.8 1.73l-1-5.88h-.14l-2.57-13.29s-3.8-1.45-5.2-1.84a3.73 3.73 0 00-4.01.63 5.11 5.11 0 00-1.73 3.89c.21.47.37.96.48 1.46.05.48-1.2.43-2 .43s-.92-1.45-.29-3.15A23.1 23.1 0 0115 25.88a11.97 11.97 0 012.07-2.91s.14-.34 1.25-.24c1.11.1 7.28.43 7.28.43l.05-2.29c6.7-.93 13.47-1.38 20.24-1.35v1.85a22.36 22.36 0 018.14-2.02.9.9 0 01.77.4c.34.42 2.41 3.02 2.65 3.4a28.3 28.3 0 011.83 3.02 6.32 6.32 0 01-.87 1.85v.01z"/><path fill="#F06351" d="M56.46 21.86l1 1.3a28.3 28.3 0 011.83 3.03 6.32 6.32 0 01-.86 1.8c-.44.43-1.35.72-1.5-.6a42 42 0 01-.2-2.17s-1.94-3.46-2.66-3.5c-.72-.04-5.83 3.5-7.18 5.04-1.17 1.3-1.4 1.21-1.4 3.5 0 1.52.17 6.71.13 11.33 1.81.2 4.47.7 5.27 1.9 0 0-.29-7.25 7.81-3.45 0 0 .28-9.88 11.46-7.35a43.78 43.78 0 00-13.7-10.83zm-10.53-2.34a92.02 92.02 0 00-1.4-16.68s-.15-1.3-.87-.24c-.6 1.28-1 2.64-1.2 4.04a70.28 70.28 0 00-12.82.34c-.82-2.77-2.22-4.03-2.89-3.7-.67.33-.75 3.3-.75 3.3l-.33 14.3c6.71-.94 13.49-1.4 20.26-1.36z"/><path fill="#E55645" d="M45.35 47.53c.13-1.08.2-2.51.24-4.1l-8.15 2.2a63.53 63.53 0 01-7.8 1.78l1.11 5.04c0 .12 0 .23.07.34 1.51.99 3.1 1.85 4.76 2.57a42.35 42.35 0 006.88-4.17v.06a15.33 15.33 0 002.9-3.72z"/><path fill="#000" d="M32 16.36c-.05-.1 1 .69 1.41.93.41.24.61.42.61.6 0 .17-.26.34-.62.34s-.92-.12-1-.26c-.08-.15.6 0 .94 0h.3c-.62-.46-1.17-1-1.64-1.6zm7.5.11s-1 1.3-1.09 1.35c-.09.07-.17.35.2.3.4-.07.81-.16 1.21-.29.11-.06.07-.2-.12-.18-.19.02-.68.05-1 .11l.85-1.28s.03-.12-.05 0zm-3.14 6.17c.47-.21.85-.56 1.1-1.01.27-.67 0-.92-.45-1.01-.6-.11-1.23.01-1.75.34-.39.37-.34.74 0 1.01s.7.5 1.1.67z"/><path fill="#F06351" d="M36 23.9c-.11.24-.27.44-.46.61-.28.23-.63.37-1 .39-.55.05-1.1-.1-1.54-.45a2 2 0 01-.53-.45 1 1 0 00-.36-.25s.75 4.14 2.57 4.8c1.82.67 2.16-.76 2.21-1.14a5.72 5.72 0 00-.82-3.27c0-.3-.02-.1-.07-.23z"/><path fill="#000" d="M34.3 25.06a3.48 3.48 0 01-2.35-1.45.15.15 0 010-.2.14.14 0 01.2 0 3.23 3.23 0 002.11 1.32 2.1 2.1 0 001.64-1l.14-.2.1.23s.38.76 1 .8c.62.04 1.06-.42 1.63-1.3a.14.14 0 01.2-.04.15.15 0 01.04.2c-.67 1-1.3 1.47-1.89 1.43A1.54 1.54 0 0136 24.1a2.27 2.27 0 01-1.7.95z"/><path fill="#FDC305" d="M36.26 38.63a3.76 3.76 0 003.75-3.78 3.77 3.77 0 00-3.75-3.78 3.77 3.77 0 00-3.75 3.78 3.77 3.77 0 003.75 3.78z"/><path fill="#111" d="M41.23 31.78L38.1 33.1l1.15-5.68-7.5 9.84 3.13-1.32-1.15 5.7 7.5-9.86zm-7.39 3.86L38 30.18l-.8 4.04 2-.83-4.2 5.47.81-4.04-1.97.82zm-1.4-1.48c.62 0 1.12-.51 1.12-1.13a1.12 1.12 0 10-2.24 0c0 .62.5 1.13 1.12 1.13zm6.52 4.09a.8.8 0 00.8-.8.8.8 0 00-.8-.8.8.8 0 00-.79.8c0 .44.36.8.8.8zm.96-2.19a.35.35 0 000-.7c-.2 0-.35.15-.35.35 0 .2.16.35.35.35z"/><path fill="#F06351" d="M45.88 21.34a60.2 60.2 0 00-5.09 5.26 31.99 31.99 0 01-5.3 4.94c-.23-.53-1.64-1.53-1.64-1.53s-3.14-2.17-5.2-3.87a32.02 32.02 0 01-3.14-3.03l-2-.11a22.65 22.65 0 0012 8.92c.86-.14 3.28-1.89 5.1-3.31a57.9 57.9 0 006-5.96c.49-.6.88-1.28 1.13-2.02a20.4 20.4 0 00-1.86.71z"/><path fill="#FDC305" d="M65.22 3.53l-8.46 9.52-1.22-2L63.7 0l1.53 3.53zm-2.57 13.88l5.54-4.14-.78-3.78-5.4 4.85.64 3.07zM59.92 49.8l6.13 3.2 3.01-2.35-6.69-2.78-2.45 1.93zM1.95 6.02l3.07-3.39 9.29 9.08-1.22 2.3L1.95 6.02zm5.43 10.4l-4.7-3.16-2.4 3.9 5.15 2.43 1.95-3.17zM13.91 53l-4.55 3.4 2.8 3.61 4.02-4.06-2.27-2.93z"/><path fill="#F06351" d="M25.93 28.24s-3.8-1.45-5.2-1.84a3.73 3.73 0 00-4 .63 5.11 5.11 0 00-1.74 3.89c.21.47.37.96.48 1.46.05.48-1.2.43-2 .43s-.92-1.45-.29-3.15A23.1 23.1 0 0115 25.88c-5.45 2.87-15 9.49-15 9.49 2.73-.17 5.47-.09 8.19.24 5.25.53 5 4.7 5 4.7 1.85-.5 3.73-.88 5.63-1.11 2.12-.14 2.27 2.14 2.27 2.14l.53 3.9c.8-.89 1.7-1.68 2.65-2.39 1.24-1 2.8-1.47 4.38-1.31l-2.72-13.3z"/></svg><svg fill="none" viewBox="0 0 61 51" id="logo-m" xmlns="http://www.w3.org/2000/svg"><path fill="#FDC305" d="M51.58 19.85a22.23 22.23 0 00-6.93-9.09 21.96 21.96 0 00-21.79-2.93 22.08 22.08 0 00-9.05 6.94 22.35 22.35 0 00-3.06 21.95 22.24 22.24 0 006.81 9.18A21.97 21.97 0 0028 50.44c-.5-1.82-1-3.82-1.45-5.95 1.3.85 2.67 1.6 4.1 2.21 0 0 .1 1.88.24 3.97 1.54.03 3.08-.1 4.6-.4a1.87 1.87 0 010-.66c.24-1.63.93-4.56 1.07-6.44 1-.94 1.83-2.03 2.5-3.23l-.05.39c-.48 3.7-1.47 7.65-2.07 8.75-.2.36-.44.7-.72 1a22 22 0 0014.61-11.53 22.43 22.43 0 00.75-18.7zm-1.26 3.3c-.38.37-1.17.62-1.3-.5-.13-1.14-.16-1.93-.16-1.93s-1.66-2.98-2.28-3.01c-.62-.04-5.03 3.01-6.19 4.34-1 1.12-1.2 1.05-1.2 3.02 0 1.48.19 7.1.08 11.39l-7.02 1.88c-2.2.64-4.45 1.14-6.72 1.5l-.86-5.07h-.12l-2.21-11.44s-3.29-1.25-4.5-1.59a3.21 3.21 0 00-3.44.55 4.4 4.4 0 00-1.49 3.34c.18.4.32.83.42 1.26.04.42-1.04.38-1.73.38s-.79-1.26-.25-2.72c.43-1.13.95-2.22 1.57-3.25.47-.93 1.07-1.77 1.78-2.51 0 0 .12-.3 1.08-.21.96.08 6.27.37 6.27.37l.05-1.97c5.77-.8 11.6-1.2 17.43-1.17v1.6a19.14 19.14 0 017.01-1.74.78.78 0 01.67.33c.29.38 2.07 2.61 2.28 2.93.58.84 1.1 1.7 1.57 2.61a5.44 5.44 0 01-.74 1.6z"/><path fill="#F06351" d="M48.64 17.83l.86 1.12c.58.84 1.1 1.7 1.57 2.6a5.44 5.44 0 01-.74 1.55c-.38.38-1.16.63-1.29-.5-.13-1.13-.18-1.88-.18-1.88s-1.66-2.98-2.28-3.01c-.62-.04-5.02 3.01-6.19 4.34-1 1.12-1.2 1.05-1.2 3.02 0 1.3.14 5.78.1 9.76 1.57.17 3.86.6 4.55 1.63 0 0-.25-6.24 6.73-2.97 0 0 .24-8.5 9.87-6.33a37.71 37.71 0 00-11.8-9.33zm-9.07-2.02C39.6 11 39.2 6.2 38.36 1.45c0 0-.13-1.13-.75-.2a12.3 12.3 0 00-1.03 3.47 60.54 60.54 0 00-11.05.3c-.7-2.4-1.91-3.48-2.49-3.2-.57.3-.64 2.85-.64 2.85l-.29 12.3a122.9 122.9 0 0117.46-1.16z"/><path fill="#E55645" d="M39.07 39.94c.1-.93.17-2.16.2-3.52l-7.02 1.88c-2.2.65-4.45 1.17-6.72 1.54l.96 4.34c0 .1 0 .2.06.29 1.3.85 2.67 1.6 4.1 2.22 2.08-1 4.07-2.21 5.93-3.6v.06a13.2 13.2 0 002.49-3.2z"/><path fill="#000" d="M27.57 13.1c-.05-.1.86.58 1.21.8.35.2.53.36.53.5 0 .15-.23.3-.54.3-.3 0-.8-.1-.86-.22-.07-.13.52 0 .81 0h.25c-.53-.4-1-.86-1.4-1.39zm6.46.09s-.87 1.11-.94 1.16c-.08.06-.15.3.16.26.36-.06.7-.14 1.05-.25.1-.05.06-.17-.1-.15a6.5 6.5 0 00-.86.1l.73-1.11s.03-.1-.04-.01zm-2.71 5.31c.4-.18.73-.48.94-.87.24-.57 0-.8-.38-.87a2.1 2.1 0 00-1.5.3c-.34.32-.3.63 0 .87.28.23.6.42.94.57z"/><path fill="#F06351" d="M31.01 19.6a1.48 1.48 0 01-1.26.85c-.47.04-.94-.1-1.32-.39-.18-.1-.33-.23-.46-.39a.86.86 0 00-.3-.22c-.01 0 .64 3.58 2.2 4.15 1.57.57 1.86-.66 1.9-1a4.84 4.84 0 00-.7-2.8c0-.27-.02-.1-.06-.2z"/><path fill="#000" d="M29.55 20.58a3 3 0 01-2.03-1.24.13.13 0 010-.17.12.12 0 01.09-.04.12.12 0 01.08.04 2.78 2.78 0 001.82 1.14 1.8 1.8 0 001.42-.87l.12-.17.08.2s.33.65.86.69c.54.03.92-.37 1.4-1.12a.12.12 0 01.17-.03.13.13 0 01.04.17c-.57.85-1.11 1.26-1.62 1.22a1.33 1.33 0 01-.97-.63 1.95 1.95 0 01-1.46.81z"/><path fill="#FDC305" d="M31.24 32.28a3.24 3.24 0 003.23-3.26c0-1.8-1.45-3.26-3.23-3.26A3.24 3.24 0 0028 29.02c0 1.8 1.44 3.26 3.23 3.26z"/><path fill="#111" d="M35.52 26.37l-2.7 1.14 1-4.9-6.47 8.49 2.7-1.14-1 4.9 6.47-8.49zm-6.37 3.33l3.58-4.7-.7 3.47 1.73-.7-3.61 4.7.7-3.47-1.7.7zm-1.21-1.28c.54 0 .97-.43.97-.97a.97.97 0 00-.97-.97.97.97 0 00-.96.97c0 .54.43.97.96.97zm5.62 3.53c.38 0 .68-.3.68-.69 0-.38-.3-.68-.68-.68a.68.68 0 000 1.37zm.83-1.89a.3.3 0 00.3-.3.3.3 0 00-.3-.3.3.3 0 00-.3.3c0 .17.13.3.3.3z"/><path fill="#F06351" d="M39.52 17.39a49.73 49.73 0 00-4.38 4.52 27.56 27.56 0 01-4.58 4.26c-.19-.46-1.4-1.32-1.4-1.32s-2.7-1.87-4.48-3.34c-.96-.8-1.86-1.67-2.7-2.6l-1.73-.1A19.5 19.5 0 0030.6 26.5c.74-.12 2.82-1.62 4.38-2.85a49.89 49.89 0 005.17-5.13c.43-.52.76-1.1.98-1.74-.98.33-1.6.62-1.6.62zm-17.18 5.94s-3.29-1.25-4.5-1.59a3.21 3.21 0 00-3.44.55 4.4 4.4 0 00-1.49 3.34c.18.4.32.83.42 1.26.04.42-1.04.38-1.73.38s-.79-1.26-.25-2.72a19.9 19.9 0 011.57-3.25C8.22 23.76 0 29.46 0 29.46c2.35-.14 4.71-.07 7.06.21 4.52.46 4.3 4.06 4.3 4.06 1.6-.44 3.21-.76 4.85-.96 1.83-.13 1.96 1.84 1.96 1.84l.45 3.35a15.8 15.8 0 012.29-2.05 5.19 5.19 0 013.77-1.13l-2.34-11.45z"/></svg><svg fill="none" viewBox="0 0 20 20" id="phone" xmlns="http://www.w3.org/2000/svg"><g fill="#000" clip-path="url(#oa)" transform="translate(0 -.29)"><path d="M17.9 9.75H9.4v1.2h8.5l-2.1 2.11.9.9 3.1-3.1a.75.75 0 000-.9l-3.1-3.12-.9.9zM8.1 19.79v-6.22a.65.65 0 00-.6-.6H3.1a1.23 1.23 0 001.2 1.2h2.5v5.02H3.1a1.78 1.78 0 01-1.9-1.71V3.43a1.78 1.78 0 011.7-1.8h3.9v5.01H4.4a1.22 1.22 0 00-1.2 1.2h4.4a.65.65 0 00.6-.6V.92a.86.86 0 00-.7-.6H3.1A3 3 0 000 3.23v13.95a2.9 2.9 0 002.9 3.1h4.6a.5.5 0 00.6-.5z"/></g><defs><clipPath id="oa"><path fill="#fff" d="M0 0h20v20.07H0z" transform="translate(0 .32)"/></clipPath></defs></svg><svg viewBox="0 0 34 34" id="scales" xmlns="http://www.w3.org/2000/svg"><ellipse cx="22.7" cy="11.67" rx="1.09" ry="1.12"/><ellipse cx="11.83" cy="11.67" rx="1.09" ry="1.12"/><ellipse cx="11.83" cy="25.09" rx="1.09" ry="1.12"/><ellipse cx="17.27" cy="27.33" rx="1.09" ry="1.12"/><ellipse cx="8.57" cy="18.31" rx="1.09" ry="1.12"/><ellipse cx="25.97" cy="18.31" rx="1.09" ry="1.12"/><ellipse cx="22.7" cy="25.09" rx="1.09" ry="1.12"/><mask id="pa"><path fill-rule="evenodd" d="M20.9 29.95c.42-.2.93-.14 1.25.2l1.8 1.9a.7.7 0 001-.95l-1.4-1.48a1.07 1.07 0 01.1-1.53A13.3 13.3 0 0028 18.15c0-7.18-5.48-13-12.23-13-6.76 0-12.23 5.82-12.23 13a13.3 13.3 0 004.27 9.87c.44.4.5 1.09.09 1.52L6.4 31.1a.7.7 0 101 .95l1.87-1.97c.32-.34.83-.4 1.25-.2a11.6 11.6 0 0010.38.06zm-5.13-.25c6 0 10.87-5.17 10.87-11.55 0-6.38-4.87-11.55-10.87-11.55-6 0-10.88 5.17-10.88 11.55 0 6.38 4.87 11.55 10.88 11.55zM15 17.82v-7.61a.78.78 0 011.56 0v8.49a.8.8 0 01-.8.8.76.76 0 01-.76-.76z" clip-rule="evenodd"/></mask><path fill-rule="evenodd" d="M22.4 29.95c.42-.2.93-.14 1.25.2l1.8 1.9a.7.7 0 001-.95l-1.4-1.48a1.07 1.07 0 01.1-1.53 13.3 13.3 0 004.35-9.94c0-7.18-5.48-13-12.23-13-6.76 0-12.23 5.82-12.23 13a13.3 13.3 0 004.27 9.87c.44.4.5 1.09.09 1.52L7.9 31.1a.7.7 0 101 .95l1.87-1.97c.32-.34.83-.4 1.25-.2a11.6 11.6 0 0010.38.06zm-5.13-.25c6 0 10.87-5.17 10.87-11.55 0-6.38-4.87-11.55-10.87-11.55-6 0-10.88 5.17-10.88 11.55 0 6.38 4.87 11.55 10.88 11.55zm-.77-11.88v-7.61a.78.78 0 011.56 0v8.49a.8.8 0 01-.8.8.76.76 0 01-.76-.76z" clip-rule="evenodd"/><path d="M9.28 30.1l2.9 2.74-2.9-2.75zm1.25-.2l1.8-3.58-1.8 3.57zm-3.11 2.16l-2.9-2.75zm-1-.95l2.9 2.75zm17.13-1.5l2.9-2.74-2.9 2.75zm.1-1.52l-2.67-2.98zM7.8 28.02l-2.7 2.95zm.09 1.52l-2.91-2.75 2.9 2.75zm17.06 1.57l-2.91 2.75 2.9-2.75zm-1.01.95l-2.9 2.75zm-1.8-1.91l2.9-2.75zm-1.24-.2l1.76 3.58zm-1.67 2.95l1.8 1.9 5.82-5.49-1.8-1.9zm8.62-4.54l-1.4-1.49-5.82 5.5 1.4 1.49zm-1.54 2.71A17.3 17.3 0 0032 18.15h-8a9.3 9.3 0 01-3.02 6.96l5.34 5.96zM32 18.15c0-9.16-7.04-17-16.23-17v8c4.32 0 8.23 3.8 8.23 9zm-16.23-17C6.57 1.15-.46 9-.46 18.15h8c0-5.2 3.9-9 8.23-9zm-16.23 17c0 5.07 2.13 9.68 5.57 12.82l5.4-5.91a9.32 9.32 0 01-2.97-6.91zm5.45 8.64l-1.48 1.57 5.81 5.5 1.48-1.57-5.8-5.5zm5.34 8.02l1.85-1.97-5.81-5.5-1.86 1.97zm-1.6-1.34a15.6 15.6 0 007.04 1.68v-8a7.6 7.6 0 01-3.44-.83zm7.04 1.68c2.47 0 4.8-.58 6.9-1.62l-3.53-7.17a7.7 7.7 0 01-3.37.79zm0-1.45c8.44 0 14.87-7.2 14.87-15.55h-8c0 4.4-3.3 7.55-6.87 7.55zm14.87-15.55c0-8.36-6.43-15.55-14.87-15.55v8c3.57 0 6.87 3.15 6.87 7.55zM15.77 2.6C7.33 2.6.89 9.8.89 18.15h8c0-4.4 3.3-7.55 6.88-7.55zM.89 18.15C.9 26.5 7.33 33.7 15.77 33.7v-8c-3.57 0-6.88-3.15-6.88-7.55zm11.68-.33v.56h8v-.56zm0 .56v.32h8v-.32zm6.44.36v-.36h-8v.36zm0-.36v-.56h-8v.56zm0-.56v-3.91h-8v3.91zm0-3.91v-3.7h-8v3.7zm-6.44-3.7v3.7h8v-3.7zm0 3.7v3.91h8v-3.91zm3.22-8.47A4.78 4.78 0 0011 10.22h8a3.22 3.22 0 01-3.22 3.22v-8zM12.57 18.7a3.2 3.2 0 013.2-3.2v8a4.8 4.8 0 004.8-4.8zm-.39 14.14a2.94 2.94 0 01-3.46.63l3.6-7.15a5.06 5.06 0 00-5.95 1.02zM3.51 34.8a4.7 4.7 0 006.82 0L4.5 29.31a3.3 3.3 0 014.81 0l-5.81 5.5zm0-6.44a4.7 4.7 0 000 6.45l5.81-5.5a3.3 3.3 0 010 4.55zm22.95-1.49a2.93 2.93 0 01-.14 4.2l-5.34-5.96a5.07 5.07 0 00-.34 7.26zM15.79 13.44a3.22 3.22 0 01-3.22-3.22h8a4.78 4.78 0 00-4.78-4.78zM5.11 30.97A2.93 2.93 0 015 26.8l5.81 5.5a5.07 5.07 0 00-.3-7.23l-5.39 5.91zm22.75 3.84a4.7 4.7 0 000-6.45l-5.81 5.5a3.3 3.3 0 010-4.55zm-6.82 0a4.7 4.7 0 006.82 0l-5.81-5.5a3.3 3.3 0 014.8 0l-5.8 5.5zM15.77 15.5A3.24 3.24 0 0119 18.74h-8a4.76 4.76 0 004.76 4.76v-8zm9.28 11.9a5.06 5.06 0 00-5.91-1.04l3.53 7.17c-1.01.5-2.44.42-3.43-.63z" mask="url(#pa)" transform="translate(1.5)"/><path d="M16.5 6V2H18v4z"/><rect width="15.5" height="1.5" x="9.5" y="2" rx=".75"/></svg><svg viewBox="0 0 34 34" id="tub" xmlns="http://www.w3.org/2000/svg"><path d="M23.28 18.47c-1.71 0-3.1 1.48-3.1 3.3 0 1.83 1.4 3.3 3.1 3.3 1.7 0 3.08-1.47 3.08-3.3 0-1.82-1.38-3.3-3.08-3.3zm0 5.02c-.89 0-1.6-.77-1.6-1.71 0-.95.71-1.72 1.6-1.72.88 0 1.6.77 1.6 1.72 0 .94-.72 1.7-1.6 1.7zM14.1-.01c-1.75 0-3.18 1.52-3.18 3.4 0 1.89 1.43 3.4 3.19 3.4s3.18-1.51 3.18-3.4c0-1.88-1.42-3.4-3.18-3.4zm0 5.48c-1.06 0-1.93-.93-1.93-2.07 0-1.15.87-2.07 1.94-2.07 1.07 0 1.93.92 1.93 2.07 0 1.14-.86 2.07-1.93 2.07zM10.73 17.6c-1.3 0-2.34 1.12-2.34 2.5 0 1.39 1.04 2.5 2.34 2.5 1.3 0 2.34-1.11 2.34-2.5 0-1.38-1.05-2.5-2.34-2.5zm-.23 1.89c-.46 0 1.16 1.1 1.16.6 0-.48-1.62.4-1.16.4.46 0 1.06-.88 1.06-.4 0 .5-.6-.6-1.06-.6zM21 9.76s3.04-.84 6.18 1.5c.9.76 1.76 1.33 1.15 2.12-.34.34-.64.66-1.72-.53A6.92 6.92 0 0021 11.4c-1.13.24-1.96.55-3.56 2.15a8.27 8.27 0 01-6.5 2.5c-2.52-.24-3.84-1.27-5.24-2.55-.3-.42-.3-.87-.12-1.13.17-.26.83-.52 1.2-.13.37.4 2.1 1.97 3.82 2.07 1.72.1 3.44.2 5.74-1.96 2.3-2.18 3.46-2.34 4.66-2.6z"/><mask id="qa"><path d="M29.15 26.82V8.16c0-.58-.38-.65-.53-.66h-.5c-.5 0-.54.56-.54.74v18.6a2.68 2.68 0 01-.82 1.89c-.81.7-1.62.6-1.62.6s-20.18 0-20.66-.03a2.3 2.3 0 01-1.6-1c-.57-.8-.46-1.85-.46-1.85V8.3c0-.83-.67-.8-.67-.8h-.3c-.54 0-.6.58-.6.77v18.54c0 1.33.46 2.4 1.55 3.33 1.1.94 2.38.86 2.38.86h20.58c.86 0 1.98-.42 2.91-1.56.93-1.14.88-2.63.88-2.63z"/></mask><path d="M31.15 26.82V8.16c0-.58-.38-.65-.53-.66h-.5c-.5 0-.54.56-.54.74v18.6a2.68 2.68 0 01-.82 1.89c-.81.7-1.62.6-1.62.6s-20.18 0-20.66-.03a2.3 2.3 0 01-1.6-1c-.57-.8-.46-1.85-.46-1.85V8.3c0-.83-.67-.8-.67-.8h-.3c-.54 0-.6.58-.6.77V26.8c0 1.33.46 2.4 1.55 3.33 1.1.94 2.38.86 2.38.86h20.58c.86 0 1.98-.42 2.91-1.56.93-1.14.88-2.63.88-2.63z"/><path d="M29.15 26.82h-20v.38l.01.39zM28.62 7.5l.71-19.99h-.71v20zm-1.04.74l-20-.15v.15zm0 .06h-20zm0 18.54l-19.99-.76v.02zm-.82 1.89l13.03 15.16.44-.37.4-.4-13.87-14.4zm-1.62.6L27.4 9.46l-1.13-.13h-1.13zM4.48 29.3l-3.4 19.71 1.14.2 1.15.06zm-1.6-1l-16.35 11.52L2.89 28.3zm-.46-1.85l19.9 2.1.1-1.05v-1.05zM1.75 7.5v20h.39l.38-.01zm-.9.78l-20-.29v.29zM2.4 30.15l-13.02 15.18zm2.38.86V11h-.65l-.64.04L4.78 31zm23.5-1.56L43.75 42.1zm20.87-2.63V8.16h-40v18.66zm0-18.66a20.54 20.54 0 00-19.81-20.64L27.9 27.48A19.46 19.46 0 019.15 8.16zM28.62-12.5h-.5v40h.5zm-.5 0A20.47 20.47 0 009.42-.38c-1.8 4-1.83 7.56-1.84 8.47l40 .3c0 .73-.02 3.91-1.67 7.6a19.47 19.47 0 01-17.8 11.51v-40zM7.58 8.24v.05h40v-.04h-40zm0 .05v.01h40-40zm0 .02v10.51a8367.03 8367.03 0 010 7.25c0 .79 0 .45.01.01l39.97 1.52c.02-.51.02-1.37.02-1.45a1362.33 1362.33 0 000-7.34V8.3l-40 .02zm.01 17.79c.05-1.35.38-7.05 5.28-11.77l27.77 28.8a22.68 22.68 0 006.92-15.54L7.6 26.09zm6.13-12.54a17.51 17.51 0 0112.43-4.2 19.23 19.23 0 011.17.1h.06s.02 0-2.24 19.87a2063.4 2063.4 0 00-2.24 19.88h.05a14.8 14.8 0 001.25.1 21.38 21.38 0 005.56-.45A22.49 22.49 0 0039.8 43.9zm11.42 15.77v-20h-.87A17598.02 17598.02 0 015.6 9.31c-1.07 0-.61 0 0 .03L3.38 49.27c.97.06 7.17.06 11.6.06h10.16zM7.88 9.6c.43.08 2.52.43 4.93 1.66 2.57 1.3 4.78 3.2 6.4 5.51l-32.67 23.07c5 7.08 11.87 8.72 14.55 9.18zm11.34 7.18a17.34 17.34 0 013.13 11.4 18.52 18.52 0 01-.03.28v.08c0 .01 0 .02-19.9-2.08l-19.89-2.09v.01a19.73 19.73 0 00-.11 1.97 22.66 22.66 0 004.12 13.48zm3.2 9.68V8.3h-40v18.14h40zm0-18.14A20.74 20.74 0 002.78-12.47a20.44 20.44 0 00-1.76-.01H1c-.01 0-.03 0 .75 19.98.77 19.99.76 19.99.75 19.99h-.07a28.57 28.57 0 01-1.65-.01 19.35 19.35 0 01-16-10.04 19.03 19.03 0 01-2.36-9.13h40zM1.75-12.49h-.3v40h.3zm-.3 0A20.52 20.52 0 00-17.18-.66 21.17 21.17 0 00-19.14 8l40 .58c-.02.76-.05 4-1.8 7.72A19.44 19.44 0 011.45 27.5v-40zm-20.6 20.77v18.54h40V8.28zm0 18.54c0 7.06 2.92 13.7 8.53 18.51l26.05-30.35a15.63 15.63 0 014 5.37 15.72 15.72 0 011.42 6.47zm8.53 18.51a23.59 23.59 0 0016.56 5.65H6l.03-.01h.01c.01 0 .02 0-1.26-19.96L3.5 11.05h.04A429.61 429.61 0 014.5 11a17.44 17.44 0 013.65.36c1.88.4 4.64 1.34 7.29 3.6l-26.05 30.36zm15.4-14.32v20h20.63l-.1-40H4.77v20zM25.4 51c7.1-.02 13.8-3.34 18.35-8.9L12.8 16.8A16.17 16.17 0 0125.3 11l.11 40zm18.36-8.91a23.97 23.97 0 005.38-15.11 21.8 21.8 0 00-.02-.94l-19.98.77-19.99.76v-.04a18.38 18.38 0 01.01-1.62 16.04 16.04 0 013.6-9.11z" mask="url(#qa)" transform="translate(0 3)"/></svg><svg fill="none" viewBox="0 0 30 30" id="vk" xmlns="http://www.w3.org/2000/svg"><path fill="#666" d="M.5 8.85c0-.87.55-1.32 1.66-1.39l4.27.02c.3 0 .49.12.58.37.43 1.25.92 2.33 1.48 3.25a34.2 34.2 0 002.14 3.16.4.41 0 00.36.22c.13 0 .24-.05.32-.17l.09-.28.02-4.36c0-.28-.07-.49-.24-.59a2.49 2.61 0 00-.9-.23c-.35-.05-.53-.23-.53-.55 0-.07.02-.12.04-.15.39-1.1 1.54-1.64 3.44-1.64l1.59-.01c.73 0 1.33.16 1.8.48.49.32.72.83.72 1.51v5.7c.14.09.27.13.37.13.29 0 .54-.15.75-.45 2.1-2.59 3.25-4.3 3.4-5.18a1.69 1.77 0 01.72-.79c.32-.18.58-.3.82-.37a.65.69 0 01.26-.04h4.44l.27.01a1 1 0 01.9.48c.07.1.13.21.15.33a2.06 2.16 0 01.08.55v.18a5.8 5.8 0 01-1.02 2.2 20.96 21.99 0 01-2.08 2.53c-.84.9-1.37 1.5-1.58 1.79-.17.19-.26.38-.26.55 0 .13.08.27.24.45l4.19 4.62c.22.27.34.56.34.88 0 .38-.17.71-.52.96-.34.25-.75.38-1.24.41l-.48.04h-4.36a1.05 1.1 0 00-.1 0 1.05 1.1 0 01-.14.03 1.83 1.92 0 01-1.16-.48 238.4 250.12 0 01-2.7-2.97 1.44 1.51 0 00-.4-.33 33.57 35.22 0 00-.57 2.24l-.1.43c-.18.59-.58.93-1.2 1.06l-.4.02h-2.8a7.75 8.14 0 01-4.74-1.92 19 19.93 0 01-4.25-4.94A43.1 45.21 0 01.64 9.56a1.62 1.7 0 01-.14-.71zm17.22 6.5c-.39 0-.76-.1-1.08-.29-.33-.2-.49-.45-.49-.8V8.5c0-.34-.09-.57-.29-.71-.2-.14-.52-.22-1-.22l-1.62.05a3.8 3.8 0 00-1.87.37c.85.36 1.27.93 1.27 1.7v4.43a1.5 1.5 0 01-.57 1.05 1.8 1.8 0 01-1.16.41c-.56 0-1-.23-1.3-.73a24.2 25.38 0 01-3.33-5.63L6 8.56l-3.8-.03c-.26 0-.39.02-.43.05-.02.02-.04.1-.04.22 0 .13.03.3.06.46l.6 1.42a30.73 32.24 0 005.24 8.59c1.88 2.1 3.73 3.14 5.54 3.14h2.88c.1 0 .2-.02.25-.1a.68.71 0 00.13-.32l.07-.25.55-2.21c.14-.3.28-.51.39-.6.2-.2.46-.28.75-.28.45 0 .93.23 1.41.73l2.44 2.7c.14.22.31.33.48.33h4.72c.59 0 .87-.13.87-.38a.4.43 0 00-.09-.25l-4.15-4.53a1.53 1.6 0 01-.5-1.14c0-.42.16-.79.46-1.16.26-.34.73-.9 1.46-1.67a36.94 38.76 0 001.87-2.19c.54-.69.89-1.3 1.06-1.84l.1-.33a.31.33 0 01-.04-.17l-.02-.19h-4.5c-.3.1-.53.25-.7.45l-.17.49c-.47 1.15-1.73 2.94-3.75 5.36-.4.33-.88.49-1.41.49z"/></svg></svg>