<?xml version="1.0" encoding="UTF-8" standalone="no"?>
<svg
   xmlns:dc="http://purl.org/dc/elements/1.1/"
   xmlns:cc="http://creativecommons.org/ns#"
   xmlns:rdf="http://www.w3.org/1999/02/22-rdf-syntax-ns#"
   xmlns:svg="http://www.w3.org/2000/svg"
   xmlns="http://www.w3.org/2000/svg"
   xmlns:sodipodi="http://sodipodi.sourceforge.net/DTD/sodipodi-0.dtd"
   xmlns:inkscape="http://www.inkscape.org/namespaces/inkscape"
   width="34"
   height="34"
   version="1.1"
   id="svg8"
   sodipodi:docname="eat.svg"
   inkscape:version="0.92.4 (5da689c313, 2019-01-14)">
  <metadata
     id="metadata14">
    <rdf:RDF>
      <cc:Work
         rdf:about="">
        <dc:format>image/svg+xml</dc:format>
        <dc:type
           rdf:resource="http://purl.org/dc/dcmitype/StillImage" />
        <dc:title></dc:title>
      </cc:Work>
    </rdf:RDF>
  </metadata>
  <defs
     id="defs12" />
  <sodipodi:namedview
     pagecolor="#ffffff"
     bordercolor="#666666"
     borderopacity="1"
     objecttolerance="10"
     gridtolerance="10"
     guidetolerance="10"
     inkscape:pageopacity="0"
     inkscape:pageshadow="2"
     inkscape:window-width="958"
     inkscape:window-height="1018"
     id="namedview10"
     showgrid="false"
     inkscape:zoom="7.8666667"
     inkscape:cx="13"
     inkscape:cy="15"
     inkscape:window-x="-7"
     inkscape:window-y="0"
     inkscape:window-maximized="0"
     inkscape:current-layer="svg8" />
  <path
     d="m 24.12,2.08 a 1,1 0 0 1 1.09,0.21 c 0.9,0.91 2.1,2.88 3.06,5.92 A 42.6,42.6 0 0 1 30,21 1,1 0 0 1 29,22 h -3.5 v 9 a 1,1 0 1 1 -2,0 V 3 A 1,1 0 0 1 24.12,2.08 Z M 25.5,20 H 28 A 39.62,39.62 0 0 0 26.36,8.81 22.4,22.4 0 0 0 25.5,6.51 Z M 11.5,2 a 1,1 0 0 1 1,1 v 28 a 1,1 0 1 1 -2,0 V 3 a 1,1 0 0 1 1,-1 z"
     id="path2"
     inkscape:connector-curvature="0"
     style="clip-rule:evenodd" />
  <path
     d="m 7,2 a 1,1 0 0 1 1,1 v 5.5 c 0,0.56 0.2,1.32 0.7,1.92 0.48,0.56 1.31,1.08 2.8,1.08 a 1,1 0 1 1 0,2 A 5.41,5.41 0 0 1 7.17,11.7 5.07,5.07 0 0 1 6,8.5 V 3 A 1,1 0 0 1 7,2 Z"
     id="path4"
     inkscape:connector-curvature="0"
     style="clip-rule:evenodd" />
  <path
     d="m 16,2 a 1,1 0 0 0 -1,1 v 5.5 c 0,0.56 -0.2,1.32 -0.7,1.92 -0.48,0.56 -1.31,1.08 -2.8,1.08 a 1,1 0 0 0 0,2 5.4,5.4 0 0 0 4.33,-1.8 A 5.07,5.07 0 0 0 17,8.5 V 3 A 1,1 0 0 0 16,2 Z"
     id="path6"
     inkscape:connector-curvature="0"
     style="clip-rule:evenodd" />
</svg>
