<svg xmlns="http://www.w3.org/2000/svg" width="30" height="30" fill="none">
  <path fill="#666" d="M15 3.5c1.94 0 3.52.02 4.74.07 1.04.04 1.97.22 2.8.54a5.76 5.76 0 0 1 3.35 3.36c.32.81.5 1.74.54 2.79.05 1.22.07 2.8.07 4.74 0 1.93-.02 3.51-.07 4.74a8.65 8.65 0 0 1-.54 2.79 5.79 5.79 0 0 1-1.32 2.04 5.79 5.79 0 0 1-2.04 1.32c-.82.32-1.75.5-2.79.54-1.22.05-2.8.07-4.74.07a133.39 133.39 0 0 1-4.74-.07 8.65 8.65 0 0 1-2.8-.54 5.79 5.79 0 0 1-2.03-1.32 5.79 5.79 0 0 1-1.32-2.04 8.74 8.74 0 0 1-.54-2.79A133.18 133.18 0 0 1 3.5 15c0-1.94.02-3.52.07-4.74.04-1.05.23-1.98.54-2.8a5.78 5.78 0 0 1 1.32-2.03A5.79 5.79 0 0 1 7.47 4.1a8.5 8.5 0 0 1 2.79-.54A133.18 133.18 0 0 1 15 3.5zM15 5c-2.01 0-3.65.02-4.92.06a7.3 7.3 0 0 0-2.27.43 4.14 4.14 0 0 0-2.32 2.32 7.26 7.26 0 0 0-.43 2.27A143.48 143.48 0 0 0 5 15c0 2.01.02 3.65.06 4.92.03.82.18 1.57.43 2.27a4.14 4.14 0 0 0 2.32 2.31c.7.26 1.45.4 2.27.43 1.27.05 2.9.07 4.92.07 2.01 0 3.65-.02 4.92-.07a7.28 7.28 0 0 0 2.27-.43 4.14 4.14 0 0 0 2.31-2.31c.26-.7.4-1.45.43-2.27.05-1.27.07-2.91.07-4.92s-.02-3.65-.07-4.92a7.28 7.28 0 0 0-.43-2.27 4.14 4.14 0 0 0-2.31-2.32 7.5 7.5 0 0 0-2.27-.43A143.44 143.44 0 0 0 15 5zm0 14.6c1.27 0 2.36-.45 3.26-1.35.9-.9 1.35-1.98 1.35-3.25s-.45-2.36-1.35-3.26A4.44 4.44 0 0 0 15 10.4c-1.27 0-2.36.45-3.26 1.35-.9.9-1.35 1.99-1.35 3.26 0 1.27.45 2.35 1.35 3.25.9.9 1.99 1.35 3.26 1.35zm0-10.5c1.63 0 3.02.58 4.17 1.72A5.68 5.68 0 0 1 20.9 15c0 1.63-.58 3.02-1.73 4.17A5.68 5.68 0 0 1 15 20.9a5.68 5.68 0 0 1-4.17-1.73A5.69 5.69 0 0 1 9.1 15a5.7 5.7 0 0 1 1.73-4.18A5.69 5.69 0 0 1 15 9.1zm7.53-.23c0 .38-.14.7-.4.97a1.38 1.38 0 0 1-1 .4 1.31 1.31 0 0 1-.97-.4 1.31 1.31 0 0 1-.4-.97c0-.39.13-.72.4-1a1.3 1.3 0 0 1 .96-.4 1.35 1.35 0 0 1 1 .42 1.35 1.35 0 0 1 .41.98z"/>
</svg>
