<?xml version="1.0" encoding="UTF-8" standalone="no"?>
<svg
   xmlns:dc="http://purl.org/dc/elements/1.1/"
   xmlns:cc="http://creativecommons.org/ns#"
   xmlns:rdf="http://www.w3.org/1999/02/22-rdf-syntax-ns#"
   xmlns:svg="http://www.w3.org/2000/svg"
   xmlns="http://www.w3.org/2000/svg"
   xmlns:sodipodi="http://sodipodi.sourceforge.net/DTD/sodipodi-0.dtd"
   xmlns:inkscape="http://www.inkscape.org/namespaces/inkscape"
   width="34"
   height="34"
   version="1.1"
   id="svg11"
   sodipodi:docname="leaf.svg"
   inkscape:version="0.92.4 (5da689c313, 2019-01-14)">
  <metadata
     id="metadata15">
    <rdf:RDF>
      <cc:Work
         rdf:about="">
        <dc:format>image/svg+xml</dc:format>
        <dc:type
           rdf:resource="http://purl.org/dc/dcmitype/StillImage" />
        <dc:title></dc:title>
      </cc:Work>
    </rdf:RDF>
  </metadata>
  <sodipodi:namedview
     pagecolor="#ffffff"
     bordercolor="#666666"
     borderopacity="1"
     objecttolerance="10"
     gridtolerance="10"
     guidetolerance="10"
     inkscape:pageopacity="0"
     inkscape:pageshadow="2"
     inkscape:window-width="958"
     inkscape:window-height="1018"
     id="namedview13"
     showgrid="false"
     inkscape:zoom="7.375"
     inkscape:cx="15.5"
     inkscape:cy="16"
     inkscape:window-x="-7"
     inkscape:window-y="0"
     inkscape:window-maximized="0"
     inkscape:current-layer="svg11" />
  <g
     clip-path="url(#a)"
     id="g4"
     transform="translate(2.00044,1)">
    <path
       d="M 28.34,2.77 A 0.95,0.95 0 0 0 27.44,2 H 27.43 C 22.49,2.03 10.48,2.92 5.63,10.38 3.12,14.26 2.9,19.29 5,25.34 l 0.07,0.13 a 25.93,25.93 0 0 0 -1.04,3.32 1,1 0 0 0 0.72,1.19 L 4.95,30 c 0.43,0 0.81,-0.32 0.9,-0.79 0.03,-0.1 2.42,-10.37 10.86,-16.38 0.43,-0.3 0.55,-0.93 0.26,-1.38 a 0.9,0.9 0 0 0 -1.3,-0.28 c -4.79,3.4 -7.74,8 -9.47,11.65 C 4.96,18.25 5.28,14.45 7.19,11.52 10.93,5.76 19.81,4.37 25.17,4.07 24,5.87 22.75,9.17 22.75,15 c 0,3.12 -0.83,5.52 -2.47,7.14 -2.62,2.6 -6.88,2.83 -10,2.58 -0.51,-0.04 -0.96,0.38 -1,0.93 -0.04,0.55 0.35,1.03 0.86,1.07 0.63,0.05 1.3,0.08 1.98,0.08 3.18,0 6.87,-0.66 9.43,-3.2 2.04,-2 3.07,-4.9 3.07,-8.6 0,-9.1 3.22,-11.1 3.23,-11.1 0.4,-0.21 0.6,-0.68 0.5,-1.13 z"
       id="path2"
       inkscape:connector-curvature="0" />
  </g>
  <defs
     id="defs9">
    <clipPath
       id="a">
      <path
         d="M 0,0 H 30 V 32 H 0 Z"
         transform="translate(0.5)"
         id="path6"
         inkscape:connector-curvature="0" />
    </clipPath>
  </defs>
</svg>
