<?xml version="1.0" encoding="UTF-8" standalone="no"?>
<svg
   xmlns:dc="http://purl.org/dc/elements/1.1/"
   xmlns:cc="http://creativecommons.org/ns#"
   xmlns:rdf="http://www.w3.org/1999/02/22-rdf-syntax-ns#"
   xmlns:svg="http://www.w3.org/2000/svg"
   xmlns="http://www.w3.org/2000/svg"
   xmlns:sodipodi="http://sodipodi.sourceforge.net/DTD/sodipodi-0.dtd"
   xmlns:inkscape="http://www.inkscape.org/namespaces/inkscape"
   width="34"
   height="34"
   version="1.1"
   id="svg27"
   sodipodi:docname="scales.svg"
   inkscape:version="0.92.4 (5da689c313, 2019-01-14)">
  <metadata
     id="metadata33">
    <rdf:RDF>
      <cc:Work
         rdf:about="">
        <dc:format>image/svg+xml</dc:format>
        <dc:type
           rdf:resource="http://purl.org/dc/dcmitype/StillImage" />
        <dc:title></dc:title>
      </cc:Work>
    </rdf:RDF>
  </metadata>
  <defs
     id="defs31" />
  <sodipodi:namedview
     pagecolor="#ffffff"
     bordercolor="#666666"
     borderopacity="1"
     objecttolerance="10"
     gridtolerance="10"
     guidetolerance="10"
     inkscape:pageopacity="0"
     inkscape:pageshadow="2"
     inkscape:window-width="958"
     inkscape:window-height="1018"
     id="namedview29"
     showgrid="false"
     inkscape:zoom="6.9411765"
     inkscape:cx="16"
     inkscape:cy="17"
     inkscape:window-x="-7"
     inkscape:window-y="0"
     inkscape:window-maximized="0"
     inkscape:current-layer="svg27" />
  <ellipse
     cx="22.700001"
     cy="11.67"
     rx="1.09"
     ry="1.12"
     id="ellipse2" />
  <ellipse
     cx="11.83"
     cy="11.67"
     rx="1.09"
     ry="1.12"
     id="ellipse4" />
  <ellipse
     cx="11.83"
     cy="25.09"
     rx="1.09"
     ry="1.12"
     id="ellipse6" />
  <ellipse
     cx="17.27"
     cy="27.33"
     rx="1.09"
     ry="1.12"
     id="ellipse8" />
  <ellipse
     cx="8.5699997"
     cy="18.309999"
     rx="1.09"
     ry="1.12"
     id="ellipse10" />
  <ellipse
     cx="25.969999"
     cy="18.309999"
     rx="1.09"
     ry="1.12"
     id="ellipse12" />
  <ellipse
     cx="22.700001"
     cy="25.09"
     rx="1.09"
     ry="1.12"
     id="ellipse14" />
  <mask
     id="a">
    <path
       d="m 20.9,29.95 c 0.42,-0.2 0.93,-0.14 1.25,0.2 l 1.8,1.9 a 0.7,0.7 0 0 0 1,-0.95 l -1.4,-1.48 a 1.07,1.07 0 0 1 0.1,-1.53 13.3,13.3 0 0 0 4.35,-9.94 c 0,-7.18 -5.48,-13 -12.23,-13 -6.76,0 -12.23,5.82 -12.23,13 a 13.3,13.3 0 0 0 4.27,9.87 c 0.44,0.4 0.5,1.09 0.09,1.52 L 6.4,31.1 a 0.7,0.7 0 1 0 1,0.95 l 1.87,-1.97 c 0.32,-0.34 0.83,-0.4 1.25,-0.2 A 11.6,11.6 0 0 0 20.9,29.94 Z M 15.77,29.7 c 6,0 10.87,-5.17 10.87,-11.55 0,-6.38 -4.87,-11.55 -10.87,-11.55 -6,0 -10.88,5.17 -10.88,11.55 0,6.38 4.87,11.55 10.88,11.55 z M 15,17.82 v -7.61 a 0.78,0.78 0 0 1 1.56,0 V 18.7 A 0.8,0.8 0 0 1 15.76,19.5 0.76,0.76 0 0 1 15,18.74 Z"
       id="path16"
       inkscape:connector-curvature="0"
       style="clip-rule:evenodd;fill-rule:evenodd" />
  </mask>
  <path
     d="m 22.4,29.95 c 0.42,-0.2 0.93,-0.14 1.25,0.2 l 1.8,1.9 a 0.7,0.7 0 0 0 1,-0.95 l -1.4,-1.48 a 1.07,1.07 0 0 1 0.1,-1.53 13.3,13.3 0 0 0 4.35,-9.94 c 0,-7.18 -5.48,-13 -12.23,-13 -6.76,0 -12.23,5.82 -12.23,13 a 13.3,13.3 0 0 0 4.27,9.87 c 0.44,0.4 0.5,1.09 0.09,1.52 L 7.9,31.1 a 0.7,0.7 0 1 0 1,0.95 l 1.87,-1.97 c 0.32,-0.34 0.83,-0.4 1.25,-0.2 A 11.6,11.6 0 0 0 22.4,29.94 Z M 17.27,29.7 c 6,0 10.87,-5.17 10.87,-11.55 0,-6.38 -4.87,-11.55 -10.87,-11.55 -6,0 -10.88,5.17 -10.88,11.55 0,6.38 4.87,11.55 10.88,11.55 z M 16.5,17.82 v -7.61 a 0.78,0.78 0 0 1 1.56,0 v 8.49 a 0.8,0.8 0 0 1 -0.8,0.8 0.76,0.76 0 0 1 -0.76,-0.76 z"
     id="path19"
     inkscape:connector-curvature="0"
     style="clip-rule:evenodd;fill-rule:evenodd" />
  <path
     d="m 9.28,30.1 2.9,2.74 -2.9,-2.75 z m 1.25,-0.2 1.8,-3.58 -1.8,3.57 z m -3.11,2.16 -2.9,-2.75 z m -1,-0.95 2.9,2.75 z m 17.13,-1.5 2.9,-2.74 -2.9,2.75 z m 0.1,-1.52 -2.67,-2.98 z M 7.8,28.02 5.1,30.97 Z m 0.09,1.52 -2.91,-2.75 2.9,2.75 z m 17.06,1.57 -2.91,2.75 2.9,-2.75 z m -1.01,0.95 -2.9,2.75 z m -1.8,-1.91 2.9,-2.75 z m -1.24,-0.2 1.76,3.58 z m -1.67,2.95 1.8,1.9 5.82,-5.49 -1.8,-1.9 z m 8.62,-4.54 -1.4,-1.49 -5.82,5.5 1.4,1.49 z m -1.54,2.71 A 17.3,17.3 0 0 0 32,18.15 h -8 a 9.3,9.3 0 0 1 -3.02,6.96 l 5.34,5.96 z M 32,18.15 c 0,-9.16 -7.04,-17 -16.23,-17 v 8 c 4.32,0 8.23,3.8 8.23,9 z m -16.23,-17 c -9.2,0 -16.23,7.85 -16.23,17 h 8 c 0,-5.2 3.9,-9 8.23,-9 z m -16.23,17 c 0,5.07 2.13,9.68 5.57,12.82 l 5.4,-5.91 A 9.32,9.32 0 0 1 7.54,18.15 Z m 5.45,8.64 -1.48,1.57 5.81,5.5 1.48,-1.57 -5.8,-5.5 z m 5.34,8.02 1.85,-1.97 -5.81,-5.5 -1.86,1.97 z m -1.6,-1.34 a 15.6,15.6 0 0 0 7.04,1.68 v -8 a 7.6,7.6 0 0 1 -3.44,-0.83 z m 7.04,1.68 c 2.47,0 4.8,-0.58 6.9,-1.62 l -3.53,-7.17 a 7.7,7.7 0 0 1 -3.37,0.79 z m 0,-1.45 c 8.44,0 14.87,-7.2 14.87,-15.55 h -8 c 0,4.4 -3.3,7.55 -6.87,7.55 z M 30.64,18.15 C 30.64,9.79 24.21,2.6 15.77,2.6 v 8 c 3.57,0 6.87,3.15 6.87,7.55 z M 15.77,2.6 C 7.33,2.6 0.89,9.8 0.89,18.15 h 8 c 0,-4.4 3.3,-7.55 6.88,-7.55 z M 0.89,18.15 C 0.9,26.5 7.33,33.7 15.77,33.7 v -8 c -3.57,0 -6.88,-3.15 -6.88,-7.55 z m 11.68,-0.33 v 0.56 h 8 v -0.56 z m 0,0.56 v 0.32 h 8 v -0.32 z m 6.44,0.36 v -0.36 h -8 v 0.36 z m 0,-0.36 v -0.56 h -8 v 0.56 z m 0,-0.56 v -3.91 h -8 v 3.91 z m 0,-3.91 v -3.7 h -8 v 3.7 z m -6.44,-3.7 v 3.7 h 8 v -3.7 z m 0,3.7 v 3.91 h 8 V 13.91 Z M 15.79,5.44 A 4.78,4.78 0 0 0 11,10.22 h 8 a 3.22,3.22 0 0 1 -3.22,3.22 v -8 z M 12.57,18.7 a 3.2,3.2 0 0 1 3.2,-3.2 v 8 a 4.8,4.8 0 0 0 4.8,-4.8 z m -0.39,14.14 a 2.94,2.94 0 0 1 -3.46,0.63 l 3.6,-7.15 A 5.06,5.06 0 0 0 6.37,27.34 Z M 3.51,34.8 a 4.7,4.7 0 0 0 6.82,0 L 4.5,29.31 a 3.3,3.3 0 0 1 4.81,0 l -5.81,5.5 z m 0,-6.44 a 4.7,4.7 0 0 0 0,6.45 l 5.81,-5.5 a 3.3,3.3 0 0 1 0,4.55 z m 22.95,-1.49 a 2.93,2.93 0 0 1 -0.14,4.2 l -5.34,-5.96 a 5.07,5.07 0 0 0 -0.34,7.26 z M 15.79,13.44 a 3.22,3.22 0 0 1 -3.22,-3.22 h 8 A 4.78,4.78 0 0 0 15.79,5.44 Z M 5.11,30.97 A 2.93,2.93 0 0 1 5,26.8 l 5.81,5.5 a 5.07,5.07 0 0 0 -0.3,-7.23 l -5.39,5.91 z m 22.75,3.84 a 4.7,4.7 0 0 0 0,-6.45 l -5.81,5.5 a 3.3,3.3 0 0 1 0,-4.55 z m -6.82,0 a 4.7,4.7 0 0 0 6.82,0 l -5.81,-5.5 a 3.3,3.3 0 0 1 4.8,0 l -5.8,5.5 z M 15.77,15.5 A 3.24,3.24 0 0 1 19,18.74 h -8 a 4.76,4.76 0 0 0 4.76,4.76 v -8 z m 9.28,11.9 a 5.06,5.06 0 0 0 -5.91,-1.04 l 3.53,7.17 c -1.01,0.5 -2.44,0.42 -3.43,-0.63 z"
     mask="url(#a)"
     id="path21"
     inkscape:connector-curvature="0"
     transform="translate(1.5)" />
  <path
     d="M 16.5,6 V 2 H 18 v 4 z"
     id="path23"
     inkscape:connector-curvature="0" />
  <rect
     width="15.5"
     height="1.5"
     x="9.5"
     y="2"
     rx="0.75"
     id="rect25" />
</svg>
