<?xml version="1.0" encoding="UTF-8" standalone="no"?>
<svg
   xmlns:dc="http://purl.org/dc/elements/1.1/"
   xmlns:cc="http://creativecommons.org/ns#"
   xmlns:rdf="http://www.w3.org/1999/02/22-rdf-syntax-ns#"
   xmlns:svg="http://www.w3.org/2000/svg"
   xmlns="http://www.w3.org/2000/svg"
   xmlns:sodipodi="http://sodipodi.sourceforge.net/DTD/sodipodi-0.dtd"
   xmlns:inkscape="http://www.inkscape.org/namespaces/inkscape"
   width="34"
   height="34"
   version="1.1"
   id="svg11"
   sodipodi:docname="tub.svg"
   inkscape:version="0.92.4 (5da689c313, 2019-01-14)">
  <metadata
     id="metadata17">
    <rdf:RDF>
      <cc:Work
         rdf:about="">
        <dc:format>image/svg+xml</dc:format>
        <dc:type
           rdf:resource="http://purl.org/dc/dcmitype/StillImage" />
        <dc:title></dc:title>
      </cc:Work>
    </rdf:RDF>
  </metadata>
  <defs
     id="defs15" />
  <sodipodi:namedview
     pagecolor="#ffffff"
     bordercolor="#666666"
     borderopacity="1"
     objecttolerance="10"
     gridtolerance="10"
     guidetolerance="10"
     inkscape:pageopacity="0"
     inkscape:pageshadow="2"
     inkscape:window-width="958"
     inkscape:window-height="1018"
     id="namedview13"
     showgrid="false"
     inkscape:zoom="7.6129032"
     inkscape:cx="15"
     inkscape:cy="15.5"
     inkscape:window-x="-7"
     inkscape:window-y="0"
     inkscape:window-maximized="0"
     inkscape:current-layer="svg11" />
  <path
     d="m 23.28,18.466307 c -1.71,0 -3.1,1.48 -3.1,3.3 0,1.83 1.4,3.3 3.1,3.3 1.7,0 3.08,-1.47 3.08,-3.3 0,-1.82 -1.38,-3.3 -3.08,-3.3 z m 0,5.02 c -0.89,0 -1.6,-0.77 -1.6,-1.71 0,-0.95 0.71,-1.72 1.6,-1.72 0.88,0 1.6,0.77 1.6,1.72 0,0.94 -0.72,1.7 -1.6,1.7 z M 14.1,-0.01369256 c -1.75,0 -3.18,1.51999996 -3.18,3.39999996 0,1.89 1.43,3.41 3.19,3.41 1.76,0 3.18,-1.52 3.18,-3.4 0,-1.89 -1.42,-3.40999996 -3.18,-3.40999996 z m 0,5.47999996 c -1.06,0 -1.93,-0.93 -1.93,-2.07 0,-1.15 0.87,-2.07 1.94,-2.07 1.07,0 1.93,0.92 1.93,2.07 0,1.14 -0.86,2.07 -1.93,2.07 z M 10.73,17.606307 c -1.3,0 -2.34,1.12 -2.34,2.5 0,1.39 1.04,2.5 2.34,2.5 1.3,0 2.34,-1.11 2.34,-2.5 0,-1.38 -1.05,-2.5 -2.34,-2.5 z m -0.23,1.89 c -0.46,0 1.16,1.1 1.16,0.61 0,-0.49 -1.62,0.39 -1.16,0.39 0.46,0 1.06,-0.88 1.06,-0.39 0,0.5 -0.6,-0.61 -1.06,-0.61 z M 21,9.7563074 c 0,0 3.04,-0.84 6.18,1.4999996 0.9,0.76 1.76,1.33 1.15,2.12 -0.34,0.34 -0.64,0.66 -1.72,-0.53 a 6.92,6.92 0 0 0 -5.61,-1.44 c -1.13,0.24 -1.96,0.55 -3.56,2.15 a 8.27,8.27 0 0 1 -6.5,2.5 c -2.52,-0.24 -3.84,-1.27 -5.24,-2.55 -0.3,-0.42 -0.3,-0.87 -0.12,-1.13 0.17,-0.26 0.83,-0.52 1.2,-0.13 0.37,0.4 2.1,1.97 3.82,2.07 1.72,0.1 3.44,0.21 5.74,-1.96 2.3,-2.18 3.46,-2.34 4.66,-2.5999996 z"
     id="path2"
     inkscape:connector-curvature="0" />
  <mask
     id="b">
    <path
       d="M 29.15,26.82 V 8.16 c 0,-0.58 -0.38,-0.65 -0.53,-0.66 h -0.5 c -0.5,0 -0.54,0.56 -0.54,0.74 v 18.6 a 2.68,2.68 0 0 1 -0.82,1.89 c -0.81,0.7 -1.62,0.6 -1.62,0.6 0,0 -20.18,0 -20.66,-0.03 a 2.3,2.3 0 0 1 -1.6,-1 C 2.31,27.5 2.42,26.45 2.42,26.45 V 8.3 C 2.42,7.47 1.75,7.5 1.75,7.5 h -0.3 c -0.54,0 -0.6,0.58 -0.6,0.77 v 18.54 c 0,1.33 0.46,2.4 1.55,3.33 C 3.5,31.08 4.78,31 4.78,31 h 20.58 c 0.86,0 1.98,-0.42 2.91,-1.56 0.93,-1.14 0.88,-2.63 0.88,-2.63 z"
       id="path4"
       inkscape:connector-curvature="0" />
  </mask>
  <path
     d="M 31.15,26.816307 V 8.1563074 c 0,-0.58 -0.38,-0.65 -0.53,-0.66 h -0.5 c -0.5,0 -0.54,0.56 -0.54,0.74 V 26.836307 a 2.68,2.68 0 0 1 -0.82,1.89 c -0.81,0.7 -1.62,0.6 -1.62,0.6 0,0 -20.18,0 -20.66,-0.03 a 2.3,2.3 0 0 1 -1.6,-1 c -0.57,-0.8 -0.46,-1.85 -0.46,-1.85 V 8.2963074 c 0,-0.83 -0.67,-0.8 -0.67,-0.8 h -0.3 c -0.54,0 -0.6,0.58 -0.6,0.77 V 26.806307 c 0,1.33 0.46,2.4 1.55,3.33 1.1,0.94 2.38,0.86 2.38,0.86 h 20.58 c 0.86,0 1.98,-0.42 2.91,-1.56 0.93,-1.14 0.88,-2.63 0.88,-2.63 z"
     id="path7"
     inkscape:connector-curvature="0" />
  <path
     d="m 29.15,26.82 h -20 v 0.38 l 0.01,0.39 z M 28.62,7.5 29.33,-12.49 h -0.71 v 20 z m -1.04,0.74 -20,-0.15 v 0.15 z m 0,0.06 h -20 z m 0,18.54 -19.99,-0.76 v 0.02 z m -0.82,1.89 13.03,15.16 0.44,-0.37 0.4,-0.4 -13.87,-14.4 z M 25.14,29.33 27.4,9.46 26.27,9.33 H 25.14 Z M 4.48,29.3 l -3.4,19.71 1.14,0.2 1.15,0.06 z M 2.88,28.3 -13.47,39.82 2.89,28.3 Z m -0.46,-1.85 19.9,2.1 0.1,-1.05 V 26.45 Z M 1.75,7.5 v 20 h 0.39 l 0.38,-0.01 z m -0.9,0.78 -20,-0.29 V 8.28 Z M 2.4,30.15 -10.62,45.33 Z m 2.38,0.86 V 11 H 4.13 L 3.49,11.04 4.78,31 Z M 28.28,29.45 43.75,42.1 Z M 49.15,26.82 V 8.16 h -40 v 18.66 z m 0,-18.66 A 20.54,20.54 0 0 0 29.34,-12.48 L 27.9,27.48 A 19.46,19.46 0 0 1 9.15,8.16 Z M 28.62,-12.5 h -0.5 v 40 h 0.5 z m -0.5,0 A 20.47,20.47 0 0 0 9.42,-0.38 c -1.8,4 -1.83,7.56 -1.84,8.47 l 40,0.3 c 0,0.73 -0.02,3.91 -1.67,7.6 A 19.47,19.47 0 0 1 28.11,27.5 v -40 z M 7.58,8.24 v 0.05 h 40 V 8.25 h -40 z m 0,0.05 V 8.3 h 40 -40 z m 0,0.02 v 10.51 a 8367.03,8367.03 0 0 1 0,7.25 c 0,0.79 0,0.45 0.01,0.01 l 39.97,1.52 c 0.02,-0.51 0.02,-1.37 0.02,-1.45 a 1362.33,1362.33 0 0 0 0,-7.34 V 8.3 l -40,0.02 z M 7.59,26.1 c 0.05,-1.35 0.38,-7.05 5.28,-11.77 l 27.77,28.8 A 22.68,22.68 0 0 0 47.56,27.59 L 7.6,26.09 Z m 6.13,-12.54 a 17.51,17.51 0 0 1 12.43,-4.2 19.23,19.23 0 0 1 1.17,0.1 h 0.06 c 0,0 0.02,0 -2.24,19.87 A 2063.4,2063.4 0 0 0 22.9,49.21 h 0.05 a 14.8,14.8 0 0 0 1.25,0.1 21.38,21.38 0 0 0 5.56,-0.45 22.49,22.49 0 0 0 10.04,-4.96 z m 11.42,15.77 v -20 H 24.27 A 17598.02,17598.02 0 0 1 5.6,9.31 c -1.07,0 -0.61,0 0,0.03 L 3.38,49.27 c 0.97,0.06 7.17,0.06 11.6,0.06 H 25.14 Z M 7.88,9.6 c 0.43,0.08 2.52,0.43 4.93,1.66 2.57,1.3 4.78,3.2 6.4,5.51 l -32.67,23.07 c 5,7.08 11.87,8.72 14.55,9.18 z m 11.34,7.18 a 17.34,17.34 0 0 1 3.13,11.4 18.52,18.52 0 0 1 -0.03,0.28 v 0.08 c 0,0.01 0,0.02 -19.9,-2.08 l -19.89,-2.09 v 0.01 a 19.73,19.73 0 0 0 -0.11,1.97 22.66,22.66 0 0 0 4.12,13.48 z m 3.2,9.68 V 8.3 h -40 v 18.14 h 40 z m 0,-18.14 A 20.74,20.74 0 0 0 2.78,-12.47 20.44,20.44 0 0 0 1.02,-12.48 H 1 c -0.01,0 -0.03,0 0.75,19.98 0.77,19.99 0.76,19.99 0.75,19.99 H 2.43 a 28.57,28.57 0 0 1 -1.65,-0.01 19.35,19.35 0 0 1 -16,-10.04 19.03,19.03 0 0 1 -2.36,-9.13 h 40 z M 1.75,-12.49 h -0.3 v 40 h 0.3 z m -0.3,0 A 20.52,20.52 0 0 0 -17.18,-0.66 21.17,21.17 0 0 0 -19.14,8 l 40,0.58 c -0.02,0.76 -0.05,4 -1.8,7.72 A 19.44,19.44 0 0 1 1.45,27.5 v -40 z m -20.6,20.77 v 18.54 h 40 V 8.28 Z m 0,18.54 c 0,7.06 2.92,13.7 8.53,18.51 L 15.43,14.98 a 15.63,15.63 0 0 1 4,5.37 15.72,15.72 0 0 1 1.42,6.47 z m 8.53,18.51 A 23.59,23.59 0 0 0 5.94,50.98 H 6 l 0.03,-0.01 h 0.01 c 0.01,0 0.02,0 -1.26,-19.96 L 3.5,11.05 H 3.54 A 429.61,429.61 0 0 1 4.5,11 17.44,17.44 0 0 1 8.15,11.36 c 1.88,0.4 4.64,1.34 7.29,3.6 L -10.61,45.32 Z M 4.78,31.01 v 20 h 20.63 l -0.1,-40 H 4.77 v 20 z M 25.4,51 c 7.1,-0.02 13.8,-3.34 18.35,-8.9 L 12.8,16.8 A 16.17,16.17 0 0 1 25.3,11 l 0.11,40 z M 43.76,42.09 A 23.97,23.97 0 0 0 49.14,26.98 21.8,21.8 0 0 0 49.12,26.04 L 29.14,26.81 9.15,27.57 v -0.04 a 18.38,18.38 0 0 1 0.01,-1.62 16.04,16.04 0 0 1 3.6,-9.11 z"
     mask="url(#b)"
     id="path9"
     inkscape:connector-curvature="0"
     transform="translate(0,3)" />
</svg>
