<svg xmlns="http://www.w3.org/2000/svg" width="30" height="30" fill="none">
  <path fill="#666" d="M.5 8.85c0-.87.55-1.32 1.66-1.39l4.27.02c.3 0 .49.12.58.37.43 1.25.92 2.33 1.48 3.25a34.2 34.2 0 0 0 2.14 3.16.4.41 0 0 0 .36.22c.13 0 .24-.05.32-.17l.09-.28.02-4.36c0-.28-.07-.49-.24-.59a2.49 2.61 0 0 0-.9-.23c-.35-.05-.53-.23-.53-.55 0-.07.02-.12.04-.15.39-1.1 1.54-1.64 3.44-1.64l1.59-.01c.73 0 1.33.16 1.8.48.49.32.72.83.72 1.51v5.7c.14.09.27.13.37.13.29 0 .54-.15.75-.45 2.1-2.59 3.25-4.3 3.4-5.18a1.69 1.77 0 0 1 .72-.79c.32-.18.58-.3.82-.37a.65.69 0 0 1 .26-.04h4.44l.27.01a1 1 0 0 1 .9.48c.07.1.13.21.15.33a2.06 2.16 0 0 1 .08.55v.18a5.8 5.8 0 0 1-1.02 2.2 20.96 21.99 0 0 1-2.08 2.53c-.84.9-1.37 1.5-1.58 1.79-.17.19-.26.38-.26.55 0 .13.08.27.24.45l4.19 4.62c.22.27.34.56.34.88 0 .38-.17.71-.52.96-.34.25-.75.38-1.24.41l-.48.04h-4.36a1.05 1.1 0 0 0-.1 0 1.05 1.1 0 0 1-.14.03 1.83 1.92 0 0 1-1.16-.48 238.4 250.12 0 0 1-2.7-2.97 1.44 1.51 0 0 0-.4-.33 33.57 35.22 0 0 0-.57 2.24l-.1.43c-.18.59-.58.93-1.2 1.06l-.4.02h-2.8a7.75 8.14 0 0 1-4.74-1.92 19 19.93 0 0 1-4.25-4.94A43.1 45.21 0 0 1 .64 9.56a1.62 1.7 0 0 1-.14-.71Zm17.22 6.5c-.39 0-.76-.1-1.08-.29-.33-.2-.49-.45-.49-.8V8.5c0-.34-.09-.57-.29-.71-.2-.14-.52-.22-1-.22l-1.62.05a3.8 3.8 0 0 0-1.87.37c.85.36 1.27.93 1.27 1.7v4.43a1.5 1.5 0 0 1-.57 1.05 1.8 1.8 0 0 1-1.16.41c-.56 0-1-.23-1.3-.73a24.2 25.38 0 0 1-3.33-5.63L6 8.56l-3.8-.03c-.26 0-.39.02-.43.05-.02.02-.04.1-.04.22 0 .13.03.3.06.46l.6 1.42a30.73 32.24 0 0 0 5.24 8.59c1.88 2.1 3.73 3.14 5.54 3.14h2.88c.1 0 .2-.02.25-.1a.68.71 0 0 0 .13-.32l.07-.25.55-2.21c.14-.3.28-.51.39-.6.2-.2.46-.28.75-.28.45 0 .93.23 1.41.73l2.44 2.7c.14.22.31.33.48.33h4.72c.59 0 .87-.13.87-.38a.4.43 0 0 0-.09-.25l-4.15-4.53a1.53 1.6 0 0 1-.5-1.14c0-.42.16-.79.46-1.16.26-.34.73-.9 1.46-1.67a36.94 38.76 0 0 0 1.87-2.19c.54-.69.89-1.3 1.06-1.84l.1-.33a.31.33 0 0 1-.04-.17l-.02-.19h-4.5c-.3.1-.53.25-.7.45l-.17.49c-.47 1.15-1.73 2.94-3.75 5.36-.4.33-.88.49-1.41.49z"/>
</svg>
