<svg xmlns="http://www.w3.org/2000/svg" xmlns:xlink="http://www.w3.org/1999/xlink">
<style>:root>svg{display:none}:root>svg:target{display:block}</style>

  <svg id="desktop" viewBox="0 0 70 66">
    <use href="#mark"/>
  </svg>
  <svg id="tablet" viewBox="0 0 70 66" style="--tablet-hidden: transparent;">
    <use href="#mark"/>
  </svg>
  <svg id="mobile" viewBox="19 2 34 38" style="--mobile-hidden: transparent; overflow: hidden;">
    <use href="#mark"/>
  </svg>
  <svg id="logo-text-main" viewBox="0 0 101 18">
    <use href="#logo-text"/>
  </svg>
  <svg id="logo-text-additional" viewBox="0 0 101 18" style="--mobile-color: #111111">
    <use href="#logo-text"/>
  </svg>

  <svg id="full" viewBox="0 0 203 66">
    <g id="mark">
      <path id="sun_small" d="M52.96 25.2c0 9.157-7.459 16.58-16.66 16.58S19.64 34.357 19.64 25.2c0-9.157 7.459-16.58 16.66-16.58s16.66 7.423 16.66 16.58z" fill="#FDC305"/>
      <path id="sun_big" d="M61.84 33.595C61.84 47.625 50.378 59 36.24 59c-14.139 0-25.6-11.374-25.6-25.405 0-14.03 11.462-25.405 25.6-25.405 14.139 0 25.6 11.374 25.6 25.405z" fill="var(--mobile-hidden, #FDC305)"/>
      <path id="cloak" d="M50.892 42.762c-.8-1.17-3.46-1.666-5.27-1.865-6.622 1.865-10.82 2.252-16.97-.05a6.095 6.095 0 0 0-4.38 1.29 18.248 18.248 0 0 0-2.65 2.341l-.531-3.829s-.15-2.242-2.27-2.103a38.924 38.924 0 0 0-5.63 1.101s.25-4.106-5-4.632A46.196 46.196 0 0 0 0 34.777s9.55-6.507 15-9.324c6.5-3.36 38-5.679 41.463-3.958a43.672 43.672 0 0 1 13.7 10.653c-11.18-2.49-11.46 7.222-11.46 7.222-8.1-3.73-7.81 3.392-7.81 3.392z" fill="var(--mobile-hidden, #F06351)"/>
      <path id="body" d="M42.051 58.306c.325-.344.604-.727.83-1.141.7-1.25 1.85-5.763 2.4-9.989.17-1.294.288-3.485.31-4.414.12-4.9-.1-11.308-.1-13.004 0-1.963.175-2.147.995-3.01.121-.126.256-.268.406-.432 1.35-1.518 6.46-5 7.18-4.96.72.04 2.65 3.442 2.65 3.442s.04.903.19 2.192c.15 1.29 1.06 1.002 1.5.576v-.01a6.17 6.17 0 0 0 .87-1.825 27.714 27.714 0 0 0-1.83-2.976c-.19-.29-1.526-1.948-2.244-2.838-.317-.394-.604-.906-1.176-.892-2.815.15-5.576.823-8.14 1.984v-1.815a83.028 83.028 0 0 0-20.241 1.329l-.05 2.252s-6.17-.328-7.28-.427c-1.11-.099-1.25.238-1.25.238-.832.847-1.448 1.846-2.07 2.867a22.56 22.56 0 0 0-1.82 3.71c-.63 1.676-.51 3.104.29 3.104s2.05.05 2-.426a7.041 7.041 0 0 0-.48-1.438 5.065 5.065 0 0 1 1.73-3.82c1.182-1.039 2.564-1.02 4-.624 1.4.387 5.21 1.815 5.21 1.815l2.71 13.064 1 5.783 1.18 5.307c.52 2.43 1.11 4.721 1.69 6.794.547 1.955 3.39 7.378 3.989 6.778 1-1-.382-2.674-.639-6.51-.16-2.39-.28-4.533-.28-4.533 0-4.036 7.15-6.5 6.86-4.037-.104 1.402-.48 3.31-.81 4.983-.175.894-.339 1.72-.44 2.367-.045.25-.045.505 0 .754.309.476.692-.04.86-.218z" fill="#fff"/>

      <g id="print">
        <path d="M36.262 37.99c2.07 0 3.75-1.665 3.75-3.719s-1.68-3.72-3.75-3.72c-2.072 0-3.75 1.666-3.75 3.72 0 2.054 1.678 3.72 3.75 3.72z" fill="var(--mobile-hidden, #FDC305)"/>
        <path d="m41.232 31.246-3.13 1.3 1.15-5.585-7.5 9.68 3.13-1.298-1.15 5.594 7.5-9.691zm-7.39 3.799 4.16-5.366-.81 3.967 2-.813-4.19 5.376.81-3.968-1.97.804zm-1.4-1.458c.618 0 1.12-.498 1.12-1.111 0-.614-.502-1.111-1.12-1.111-.619 0-1.12.497-1.12 1.11 0 .614.501 1.112 1.12 1.112zm6.52 4.027c.436 0 .79-.35.79-.784a.787.787 0 0 0-.79-.783c-.436 0-.79.35-.79.783 0 .433.354.784.79.784zm.96-2.152c.193 0 .35-.156.35-.348a.349.349 0 0 0-.35-.347.349.349 0 0 0-.35.347c0 .192.157.348.35.348z" fill="var(--mobile-hidden, #111)"/>
      </g>

      <path id="hat" d="M45.932 19.194a89.015 89.015 0 0 0-1.4-16.397s-.15-1.29-.87-.238a14.057 14.057 0 0 0-1.2 3.968 71.461 71.461 0 0 0-12.82.337c-.82-2.728-2.22-3.968-2.89-3.64-.67.327-.75 3.253-.75 3.253l-.33 14.046a143.942 143.942 0 0 1 20.26-1.33zM36.002 23.509c-.115.225-.271.427-.46.595-.285.227-.635.36-1 .377a2.193 2.193 0 0 1-1.54-.437 1.995 1.995 0 0 1-.53-.446 1.001 1.001 0 0 0-.36-.248s.75 4.077 2.57 4.731c1.82.655 2.16-.753 2.21-1.13a5.55 5.55 0 0 0-.82-3.214c0-.298-.02-.1-.07-.228z" fill="#F06351"/>
      <path id="collar" d="M45.882 20.99a57.22 57.22 0 0 0-5.09 5.167 31.789 31.789 0 0 1-5.31 4.86c-.22-.525-1.63-1.507-1.63-1.507s-3.14-2.133-5.2-3.81a31.78 31.78 0 0 1-3.14-2.975l-2-.109a22.62 22.62 0 0 0 12 8.769c.86-.14 3.28-1.855 5.09-3.254a57.431 57.431 0 0 0 6-5.862 6.314 6.314 0 0 0 1.14-1.984c-1.14.377-1.86.704-1.86.704z" fill="#F06351"/>
      <path id="panties" d="M45.352 46.74c.13-1.062.2-2.47.24-4.028l-8.15 2.153a64.434 64.434 0 0 1-7.8 1.756l1.11 4.96c0 .108 0 .218.07.327a32.398 32.398 0 0 0 4.76 2.53 42.484 42.484 0 0 0 6.88-4.098v.06a15.115 15.115 0 0 0 2.89-3.66z" fill="var(--mobile-hidden, #E55645)"/>
      <path id="lineaments" d="M32.002 16.09c-.05-.1 1 .674 1.41.912.41.238.61.416.61.585 0 .169-.26.337-.62.337s-.92-.119-1-.258c-.08-.139.6 0 .94 0h.29a8.05 8.05 0 0 1-1.63-1.577zm7.5.108s-1 1.27-1.09 1.33c-.09.059-.17.337.19.287a8.146 8.146 0 0 0 1.22-.278c.11-.06.07-.198-.12-.178-.19.02-.68.05-1 .109l.85-1.26s.03-.119-.05-.01zm-3.14 6.06a2.293 2.293 0 0 0 1.09-.991c.28-.655 0-.903-.44-.992-.606-.11-1.23.01-1.75.337-.39.367-.34.724 0 .992.337.263.707.483 1.1.655zm-2.06 2.382a3.518 3.518 0 0 1-2.35-1.419.148.148 0 0 1 0-.198.139.139 0 0 1 .1-.042.14.14 0 0 1 .1.042 3.21 3.21 0 0 0 2.11 1.3 2.122 2.122 0 0 0 1.64-.993l.14-.188.1.218s.38.754 1 .794c.62.04 1.06-.417 1.63-1.28a.144.144 0 0 1 .2-.04.143.143 0 0 1 .04.199c-.667.972-1.297 1.438-1.89 1.398a1.558 1.558 0 0 1-1.12-.724 2.255 2.255 0 0 1-1.7.933z"/>
      <path id="rays" d="m65.223 3.472-8.46 9.364-1.22-1.974L63.693 0l1.53 3.472zm-2.57 13.649 5.54-4.077-.78-3.71-5.4 4.771.64 3.016zm-2.73 31.85 6.13 3.155 3.01-2.321-6.69-2.728-2.45 1.895zM1.95 5.922 5.02 2.59l9.29 8.927-1.22 2.262L1.95 5.922zM7.38 16.15l-4.7-3.105-2.4 3.839 5.15 2.38 1.95-3.114zm6.53 35.977-4.55 3.323L12.16 59l4.02-3.988-2.27-2.886z" fill="var(--mobile-hidden, var(--tablet-hidden,#FDC305))"/>
    </g>
    <g id="logo-text" viewBox="0 0 101 18">
      <g fill="#111111">
        <path d="M1.26449 16.5385C0.36955 15.2762 -0.0747041 13.7627 1.02073e-05 12.2308V5.84615C-0.108365 4.29774 0.308071 2.75746 1.18546 1.46154C2.05478 0.461538 3.39829 0 5.37403 0C7.34978 0 8.61425 0.461538 9.40455 1.30769C10.2626 2.37941 10.6846 3.72136 10.59 5.07692V6.61539H6.71754V4.84615C6.74881 4.32289 6.66808 3.799 6.48045 3.30769C6.38016 3.10938 6.2212 2.9448 6.02403 2.83513C5.82686 2.72547 5.60049 2.67572 5.37403 2.69231C4.82082 2.69231 4.42568 2.84615 4.26762 3.23077C4.08883 3.77733 4.00862 4.34988 4.03053 4.92308V13.1538C3.98879 13.71 4.0978 14.267 4.34665 14.7692C4.5047 15.1538 4.89985 15.3077 5.45306 15.3077C6.00627 15.3077 6.32239 15.1538 6.48045 14.7692C6.66013 14.2494 6.74049 13.7019 6.71754 13.1538V11.3077H10.59V12.8462C10.6704 14.2238 10.2508 15.5852 9.40455 16.6923C8.61425 17.6154 7.27075 18.0769 5.37403 18.0769C3.47732 18 2.05478 17.5385 1.26449 16.5385Z"/>
        <path d="M15.2527 0.23077H19.7574L23.0767 17.7692H19.4413L18.8091 14.0769H16.2011L15.5689 17.7692H11.8545L15.2527 0.23077ZM18.493 11.7692L17.5446 4.92308L16.5963 11.7692H18.493Z"/>
        <path d="M25.8427 3.15385H23.1557V0.23077H32.5602V3.07692H29.8732V17.7692H25.8427V3.15385Z"/>
      </g>
      <g fill="var(--mobile-color, #444444)">
        <path d="M39.752 0.23077H46.7066V2.07692H42.2019V7.84615H45.8372V9.61539H42.2019V16.0769H46.7066V17.8462H39.6729V0.23077H39.752Z"/>
        <path d="M48.7613 0.23077H50.5L55.6369 11.8462V0.23077H57.6917V17.7692H56.1111L50.8951 5.76923V17.7692H48.7613V0.23077Z"/>
        <path d="M60.0626 0.23077H67.0172V2.07692H62.5125V7.84615H66.1479V9.61539H62.5125V16.0769H67.0172V17.8462H60.0626V0.23077Z"/>
        <path d="M69.072 0.23077H72.7074C74.1375 0.134618 75.5587 0.514353 76.7379 1.30769C77.6072 2 78.0024 3.23077 78.0024 4.84616C78.0024 7.07692 77.2911 8.46154 75.7895 8.92308L78.3185 17.6923H75.8686L73.4977 9.46154H71.5219V17.6923H68.993V0.23077H69.072ZM72.5493 7.76923C73.364 7.83458 74.1761 7.61652 74.8412 7.15385C75.3154 6.76923 75.5524 6 75.5524 4.84616C75.5743 4.27296 75.4941 3.7004 75.3154 3.15385C75.1375 2.76166 74.832 2.4373 74.446 2.23077C73.9017 1.98934 73.3042 1.8836 72.7074 1.92308H71.601V7.69231H72.5493V7.76923Z"/>
        <path d="M81.1635 16.4615C80.342 15.1166 79.9564 13.5617 80.0571 12V6.15384C80.0376 5.03911 80.1705 3.9268 80.4522 2.84615C80.7167 2.03863 81.2437 1.33668 81.9538 0.846152C82.8362 0.337748 83.8542 0.0967294 84.8779 0.153844C86.5375 0.153844 87.723 0.53846 88.4343 1.38461C89.2524 2.50191 89.6438 3.86237 89.5407 5.23077V5.84615H87.1698V5.30769C87.1734 4.66346 87.1205 4.0201 87.0117 3.38461C86.9451 2.98303 86.7178 2.62348 86.3795 2.38461C85.9353 2.10082 85.4081 1.96579 84.8779 2C84.3113 1.96466 83.7504 2.12843 83.2973 2.46154C83.1114 2.61401 82.9595 2.80181 82.8508 3.01344C82.742 3.22507 82.6789 3.45608 82.6651 3.69231C82.5609 4.37999 82.5081 5.07411 82.507 5.76923V12.3077C82.4488 13.3038 82.6105 14.3006 82.9812 15.2308C83.2973 15.8462 83.9296 16.0769 84.8779 16.0769C85.2524 16.1223 85.6322 16.0589 85.9697 15.8947C86.3072 15.7304 86.5873 15.4727 86.7746 15.1538C87.1922 14.1811 87.3812 13.1299 87.3278 12.0769V10.8462H85.036V9.07692H89.6197V17.7692H88.0391L87.802 15.7692C87.5948 16.4395 87.1634 17.0231 86.5763 17.4273C85.9892 17.8315 85.2801 18.0331 84.5618 18C83.9088 18.0374 83.2565 17.9164 82.6633 17.6479C82.0702 17.3794 81.5549 16.9717 81.1635 16.4615Z"/>
        <path d="M94.6776 11.6154L90.8052 0.30769H93.1761L95.9421 8.76923L98.6291 0.30769H101L97.1275 11.6154V17.7692H94.7566V11.6154H94.6776Z"/>
      </g>
    </g>
  </svg>
</svg>
